<mxfile host="Electron" modified="2023-11-16T13:18:04.255Z" agent="Mozilla/5.0 (X11; Linux x86_64) AppleWebKit/537.36 (KHTML, like Gecko) draw.io/22.0.3 Chrome/114.0.5735.289 Electron/25.8.4 Safari/537.36" etag="jJbKs-m2y7tKSaoEWWcw" version="22.0.3" type="device">
  <diagram name="Page-1" id="EmlSMCanlueWm85hmf45">
    <mxGraphModel dx="2771" dy="1746" grid="1" gridSize="10" guides="1" tooltips="1" connect="1" arrows="1" fold="1" page="1" pageScale="1" pageWidth="850" pageHeight="1100" math="0" shadow="0">
      <root>
        <mxCell id="0" />
        <mxCell id="1" parent="0" />
        <mxCell id="-F9nOF9U5pAo5h1Y6MdJ-9" style="edgeStyle=orthogonalEdgeStyle;rounded=0;orthogonalLoop=1;jettySize=auto;html=1;" parent="1" source="Ou6aJvPcGe9I50dE5qYa-16" target="2mZzgcwf6ATfASOrpY5C-17" edge="1">
          <mxGeometry relative="1" as="geometry" />
        </mxCell>
        <mxCell id="Ou6aJvPcGe9I50dE5qYa-22" value="Sends requests to" style="edgeStyle=orthogonalEdgeStyle;rounded=0;orthogonalLoop=1;jettySize=auto;html=1;entryX=0.521;entryY=-0.033;entryDx=0;entryDy=0;entryPerimeter=0;" parent="1" source="Ou6aJvPcGe9I50dE5qYa-10" target="Ou6aJvPcGe9I50dE5qYa-16" edge="1">
          <mxGeometry relative="1" as="geometry" />
        </mxCell>
        <mxCell id="-F9nOF9U5pAo5h1Y6MdJ-4" style="edgeStyle=orthogonalEdgeStyle;rounded=0;orthogonalLoop=1;jettySize=auto;html=1;" parent="1" source="2mZzgcwf6ATfASOrpY5C-2" target="2mZzgcwf6ATfASOrpY5C-41" edge="1">
          <mxGeometry relative="1" as="geometry" />
        </mxCell>
        <mxCell id="-F9nOF9U5pAo5h1Y6MdJ-8" style="edgeStyle=orthogonalEdgeStyle;rounded=0;orthogonalLoop=1;jettySize=auto;html=1;entryX=1;entryY=0.5;entryDx=0;entryDy=0;" parent="1" source="2mZzgcwf6ATfASOrpY5C-15" target="Ou6aJvPcGe9I50dE5qYa-16" edge="1">
          <mxGeometry relative="1" as="geometry" />
        </mxCell>
        <mxCell id="2mZzgcwf6ATfASOrpY5C-15" value="Manages indexers" style="shape=image;verticalLabelPosition=bottom;labelBackgroundColor=default;verticalAlign=top;aspect=fixed;imageAspect=0;image=https://usenetreviewz.com/prowlarr-review/prowlarr-rank-logo.png;clipPath=inset(0% 30% 0% 30%);" parent="1" vertex="1">
          <mxGeometry x="470" y="310" width="100" height="100" as="geometry" />
        </mxCell>
        <mxCell id="2mZzgcwf6ATfASOrpY5C-42" style="edgeStyle=orthogonalEdgeStyle;rounded=0;orthogonalLoop=1;jettySize=auto;html=1;" parent="1" source="2mZzgcwf6ATfASOrpY5C-17" target="2mZzgcwf6ATfASOrpY5C-41" edge="1">
          <mxGeometry relative="1" as="geometry" />
        </mxCell>
        <mxCell id="2mZzgcwf6ATfASOrpY5C-17" value="Downloads torrents" style="shape=image;verticalLabelPosition=bottom;labelBackgroundColor=default;verticalAlign=top;aspect=fixed;imageAspect=0;image=https://superiorhirek.hu/wp-content/uploads/2020/04/qBittorrent-logo.jpg;clipPath=inset(10% 17.67% 3.33% 15.33%);" parent="1" vertex="1">
          <mxGeometry x="138.61" y="470" width="173.33" height="168.15597014925376" as="geometry" />
        </mxCell>
        <mxCell id="-F9nOF9U5pAo5h1Y6MdJ-5" style="edgeStyle=orthogonalEdgeStyle;rounded=0;orthogonalLoop=1;jettySize=auto;html=1;" parent="1" source="2mZzgcwf6ATfASOrpY5C-22" target="2mZzgcwf6ATfASOrpY5C-15" edge="1">
          <mxGeometry relative="1" as="geometry" />
        </mxCell>
        <mxCell id="2mZzgcwf6ATfASOrpY5C-22" value="Allows access to sites protectedÂ &#xa;by Cloudflare" style="shape=image;verticalLabelPosition=bottom;labelBackgroundColor=default;verticalAlign=top;aspect=fixed;imageAspect=0;image=data:image/png,iVBORw0KGgoAAAANSUhEUgAAARYAAABrCAIAAAA95DqzAAAAA3NCSVQICAjb4U/gAAAgAElEQVR4Xu1dB2AUVfqf2dmeHpKQRgoJgYQeaggdNEoRGyIiinqeNA9Pj9Oz3OlfD088Tz09T71DPTzsIicIAtKb0lvoJXSSkJ7tOzv/3/dmNwRSdhOSEJJ5xHV35s0r33u/9/ve9773hg8IacspQZGAIoH6SkBV3weV5xQJKBIgCSgQUvqBIoFrkoDax6cFQTAYjTqtVq329REfU76hozmdTpvdbjGbRVG8oSuiFL7eEuB9mQsZDIbAwECeRy48fUr1zq5lPchzEolCwmdpaanFYmlZ1VNq45MEBJ3Bv/aIHvwAOwxESqgkAQgEYoFgdDqdy+UCKSniaW0S8DIXgv7G+EcBT20dg4DE8xAUxFVbPOVeS5SAFwhh/kPs0xJr3rB1YijiIK6GTVZJrflLwAuEYD8gVUUJPkmAZ+JSQuuSgBcIwf6m6HA+9ggISjFX+iirlhTNC4Soqor9zccGVwTlo6BaVjQfINSyKqzURpFAw0pAgVDDylNJrdVJQIFQq2typcINKwEFQg0rTyW1VicBBUKtrsmVCjesBBQINaw8ldRanQQUCLW6Jlcq3LASUCDUsPJUUmt1ElAg1OqaXKlww0pAgVDDylNJrdVJQIFQq2typcINK4Ebdxc32+rG/rmDBG8+5qbGtpIqQZFA00jgBoMQryLalFwu8n71/KsqKZ5XAVosmhIUCTSuBG4MCFVAQkaFWqtT6/w5QeMXGBYUFsPx2CsqlV46ayq+JEk4EMTktJllQqoEucaVo5J6q5XAjQAhXiVJLkCCVwnRHfvFpA6ITRuuNgSCZ9QaHf7JjeewOZ0OG7Q40WHJO7blTPbGs/vXOx1WuoutPIp212r7eCNX3MsJPm3btlVdvz134BCZdkKjU+J7ZEWlDmgTk6o1clYzxzElDdBCYCKSVCqByIoBRmfgnQ6uNP/sxUMbzx/cdDp7Ay6rVCpP5MYSqkuScnNzGyt1Jd1mKYHmCyEc6IHTpXhe6DTk7vQxT+r8dHYrJzockktk6lmt29ElF0hLrdFq9ZzDwR1aNW/HkvdcLrGx6UiBULPs5I1bKC+HYPn7+1+P03vc8IhJGzjskdfb97odTGMz2zjCBeDjxg+dK1QlyNLiiTp5J85HtDn8tK6uvfskdc0wl5UWnD+BCIysGsVqh0RNJlPjtpiSejOTQDOEEPAD8uF7j5neb/wLev82drsdQlMJ0NMIWhWoqUGS7CwdMBjHaQRVWKAq0MA5bWJI2+huA7M0uoCcg9vAY0RHjRAUCDWCUJt7ks0MQtSzJZ1f4IhfvZ2SOc5qtotOkeY4TKmT8VOLRBGF2IfncDqvVs1HBksaAZMmsA7vsDtFh7N9t57tuwzKyd5qNZU0BhcpEKqldVrqrWYFIcIPDNaDJr8anz6wvNgCCwHUNtmWJpOPl2ZgC61Q9wwark0Ap1bxhB8enEa2BLCT3eKIiI2KSOh+Yu9mm6VMpjUvadbltgKhukirhcRtVg4+EszWN037IK77kPJCq4Dz790WBYKPV3kTBXGc6OJ0aq5tILQ4MtoxUgKDyZYJDmmWlVjjOnS+75kPVGotYzbvKXvNWonQmiXQbFgIypaKz7z3xfieQ6zlNsx85FbxBTyIKatwwIxew4UFcCpeNj0QhDzaHVBESUJ/c9qdQWFtwmM7HN+zwSXiFGx2oyGCwkINIcUbLI3mASGYyCRXj1umdbvlPnOJFVwkI8dH/DBguNdOgR+wEDPdXcaP3CaX0+RpahTfKVlnbHtkx6oGnBQpELrBun9DFPf6K3LUgyVXRFJ616xHTMU2+CAw1YuMcj5WEPRCfxwXbCQWgi5XFT8VKJJTxtSotMCWPnxMh57DsD7rXpP1MT8lmiKBShK4/hBCYVSCGhQE4wFNTch+UDf8yBRk1BKEPGqb+0vVtpbxya7zokMcce8Ter9At4t31djKFUUC3iRwvX3kmP9b6sD72nXtU15sAzkQ9fjMPwwIbrQE6omIZAjJnzXV3c1vKs5mdUYlxg+6Y/rK//6lErRqeq4Jr/Nh93y8/uWBtR9yL579eFLWn3cET/x4DYvqKv7msYxn1juasJyXs1IFpoy4656xQ/t2TY5tE2RUO00l+WeP7N+2buk3C1cfKq7nOwDVfZ9f/enkaEyMHbtezbpv3ulm6Ht/vSFEVmx9h4y7bGYRnbgeKhxZ4SQuQM/B3bSCgrx2IpnokJ2l3Nk545Zfln1SWgDfNrKqe31WiXC1BPjgPjPfeXNG/3D1Zd1bExQeh7/OmbdO/vX2D383682NBc2w+19dk/r8vp6KHLm6SVKXYQ+ExSfCSlYf/DDLm1YgFQ5BtrnJn7ULoyIv0ekMDg0ePuFJ2SWi9qeUu9VJQBV919x3H8/w4Edy2csLC4otGNhY4IWwPlPffWtyYkt9e9l1YSG22ZQXsC8hMLxdxyGTLCbCD0J1LeS+VlU3k6NjGuOno1VU0UVLqJ7g3ZvBnZ1KMJU70vqP2LdpEGzcFY8zLzvaYAFc0laL6xfEnH9PGvX63mo0Ieanft3XtYTO9z46JJiGYslxZvncp+d8vf28BcXSRXTO+tVzL0xJD8H2R//ejz2S8eXzG9nWkxYWmoKFyMFGVXkMIgua5HLis1vWNGNwEN5RCvcBttB5dai45gaMbHzzfIoiXHh4Px28ELChiDo6Awb1eq+YRGRPjvT02EdfiuvU22Oak3dRuOBNJ+NH3rp3deGa6DdKUW1wgYGve1BF9OgZxxpXMq1+49n5Wwk/9MuWt//7V2e8tKKI/VS16ds/pWXyUKOyEGEHIyX1QtbYap0R9CNoDWpBHd0po22HvrHdbrKW2WkhqArLyOC5jBympwkACPPiwX+wPOh1fIBBElTYwKqFbdzlRG9zCmotPmV4yAobRa/OUC4TEfgQpjmDf8jE2e9fPHnAajObyopMRZeASau55PShbeeO7ZO3LTXBjiMSUwMFTdu+dz00afSgnintwgK0LktJ/ulDOzcs+e/8hbsuuTlN6PibRd/9JhVdWzz+/j2j3y0bPn32jDv6ar7/1Vg37/F+STc98Mj4WwZ0jg8zOgvPnTq8fenn//lq7YkyNzPzfgF+bvJnA9sVQSpa99FbH56NQy+TzNlXurAb4obc8+D4rIE9k6NDDJKp4NzRPRuXfz3/q41nanlxupDy+KLvZqVSeqYVs4fMWFzsyVFImb7oe/lO2YqnRs74nt3RhPe+66HJ44b27hAdpDblnjmxb9138+cv2ZlHnsssqPu/uGr+/ZGgEsf2OTdN+jbgtlmzH721W/G8O+//+OLNb+969xYdYtlWPdV35vqUibN/98CIjsdeHT5jUaknAa6xICR3WWzbwZc2sZ2iOmVGp/QNbJsEBBEj8bxfoD+n4qzlDurHcv92FwotAT9rWSvjgT98xaRJJ5Dnm1YtqWnd1a2zAUVEOII6/+S+U3t+gtubpfRSXNdhHfqPc2HPnWytY8myBN1EJyNHzk1GGrCBnUjIpl2nbkgTaKQyMnc7m9l55uieTYvnndy3GWxVgckKCTbPL4Yuj334yVN9gpmFkwX/Nu3SMtulDRgzbtizkx//9vTVmqEqZtxfn52TFSnwYo77KW3ina/+++XR8TpPItHJwdHJ3YfePWXt3GlPzN9vQi91XbqQ65A6w5DA+4945u9PqP7+1aq9583u1KWynV/8dWcVEemT7prz3ktjE/QVpdNGdeiLv6yJkxa/MPX5707YqjzDLojHly07PCO1M3y/DH2H9DUuXuHGpSoyY0CyTIZlm5euK0HJ+JC+T/zznWm9KmRgiE8Ni0/tO+r+yQt+N+2Vny5eLQFOm/Lgu689kwHN07nrsuDkkhh7/eajd6Z2xXBhP3nlvcaCELqmTu/fIePOuO43B0V39AvS0IY5eqU8GzYkyVJuBxKot17ND8AHMQ2wwxxGoaeRw4FaAO24Rznq94y1oIDBFag079Smz180l17CPnBRdJhL8pP6jNXodA6bXdBq2YEl5LvtciJHprNXWndyQx1XmCZps9gJbewfFQ8NoRIS0nrFdex1bPe6A1t/2r9pMRMpqYvsS6MHIeHRrw4/WiUb8cT748f8tbopEqIKKQ++PEvGjySWnN5/8JxZG57cOTlcB8qNHPn76UOWPbMaW38rhaARs55JBH4uXzKkP/6OjB9JLD66ZcO+fCGq+8B+iYGCOmrY0x+8knvHUz/muaSS9YvXFA4d1QYNqY4aNO3NQVMdpeePZmdnHzx48MDBfXt27T9ZfIWdnQ/MfPofr4xN0FBekmjOP370Ah+V0j7cgMFR337snH8WX7h7zs9l1cpXPPnjsuzfpHVX86rAjGG99CvWyzv7g/tndmH2QKl047L1pRKnir7j1bem9aZJmmQ9v2v91hOWwA79MrtF6lT+aff/7d2CiZPezb4CqKqo2595Ign4qSaokx94flCyh26vjNDgEHL3rZhOGf3HPxcUHeu0cU6Hs7zIytwOkLm7kZgTAqOFSh2aQYSIC+SD1gw08EEGCRGZ0k+URoWXXAQMATtYOdFu0QVqzUfzHDaTISAUqakxx7KbT+xYGh7fJTAivvDcsePbFmsNAcl9xxqDIkQnkV4lqwOlV/Gb3XIXT2YnWVY2sx2I7tRnSFr/IRGxSRsWve+wWVnhr6eZQS5btZ9C+5E3p2qpJuKpLx6586WNNChzhl7PLPrsoSQMRcGdu8ULqw9WHoWFsKT25pNrP/lmTfZFsyXnnKSKHPf4pI7EP2Lesqfv+u3iCxRdHX3b61+/PqqtILQd9dspn/w0d49TKlj2p5kJQW9PHxDBQMHxmsCYtAz83Uy/JLHs1C/ff/z3d75wq49C0sSnJjD8SGLehr9Nf3LebuhcfHD6Y2/848mB4Spe037CUxMW3PvvnCosQemJOSuW7p3VLV3Dq0IGDO2mWb+V8GnsPbAXozRXyfqlG4EgXe8pM4cB1sBP9j8m3f/WHhoweL/usz79z4xuBt7Y5ZFZo798bGF+JZwKMUkJJUeWffjdhiOX7KVHCytDWIhPjr+0d+FX32/DeFC49wpVs2EhRHLhBWHEw2/FdBuELg6HN9lhp8KcUBlFVKkru7P8Cx468LOOCIDaRkQk4wcx0a0x19Ea9Wf2/3z+0OaOA+8JiYzN2bVl/6qP0aGxrxtqHZLEvGX3sn8Kak1obGp54fmy/NPI5uKRrYMf/Is+IFTEESWYUrmRQo1SbZALJgMJWy7wxVxuQ/pD7prSLqXnp6/+yq0oNhUXVVvImi5KxRv+8eQpdH/JeW7nZoYfjtNFtI8JcFdbh0nkVQ+LZ7+dNf75NZ65Bd/m7pv7YOaKPntuySfLGH4QnOd/+GjRzKzH2guc0G7Y8JQ39hwQOalo23tTRizuP2bcqOEZfbp3TiQ+8STPCwEJAya92Gdwz6fu/f3yXJeQeHNWGoO3q3T1a7MZfhCk4p0fPP3X9B//MjwAR190vWVE7MfzTlWLIdeZ5Uv3PNWztxZ8OmhImrB1DzaH9RjQj9XNVbJh6cYyQL3LTcNjSK+TbL8s+HSvm3Al095P5m955PXhBp737zu0f8DCxZenNBDW0X89MuH13ZfxcXllW7Jsn/vAA/OOV7ds3YAQkg1vun7j/xCXPshcgpGbPHeoGr457DDVDIDhMecJ9ec1KtnbTe7MDD+SpNHrC8+d3Ln47yX5Ofmn9oUndD21+yeXy6nW6Km7e3RC4Ac/807sUuFGQCjKUJx7YvOXL2dO/KPWEChBq5MPKvG0c03/rwASvggCrPBSebE1PrX7+Flvrpj/l+JL5xk7Vh6uakqp/tdrMGrLFu3qk3Xl71u1dJ8QgF1XA+/43Z3JyUntE9onwh5QWU+78lHXpXWLN1bMzTHIJHVKlklFiHv4q+yHq8lIFZsUr+UOyD1OspzZ8vW7+MOjhoiETmlpXbv3GjD8psFpYYQXXtNu7DPTv133py18ShrwR2Kz71y1rvJQLxWsXbXHMZz8LIQOaR3VXPUQ4lznVyzdObtXfx0vxA0c0uFvew5xqZkZxDicq2jt0k3lyC44pWNblguvHzLnl6NzqhafNyQkAmSVIOQ6vnLJvhpMGc69P/xwsjr8IOFqNb+qGfpyhRp1wH2vpA0ZZyq2kB2bzS4QrqKaatNy48eFdVIpPIDT4OgeelAGBYEQqas1aihm6+c/azUV+QVHmotzj2/7AShVawy4Tfi7UitT6wzwu4N1DgQlaPSFZw/ZzGU056m2BDVfdBOgbChXCeYya5eMgaMf+T9maaxrYjVnU+Odao3atVu09cl3z120fuWn77z0219PHJ3ZMch6YuM3nyw/Vu24ThlL5WXlldVSlX+Av5e+AX4J8r+azJCUaMk7vmvt4vlvvzh13Mixz63IlTMV2vbLSMIKRKC/DGTJWlBI9ojLQSq7VGBjV6ALBjEKrDa4Lv70wzYrRRSShwyKFYSEAQNiCTCuwjVLtxDj+FB6jgsI9pCynIurrKT6+RelXF7mMUFWKVIDsRBDSdcRDyWmjyRXN0EtdztfwIMiefiHg3k6LIDsb8z0RaCQAUj9BRZtter49qXlBWcNgWEu0aESNDraNke6HhIhEvQwHrMHEKSRCpUE112uriMfwkquC5Y3r2pcFTHJj9BwwE5xKC20xaelZ4z51ZYl/5ZLWeWJ63lB03Xamy/fkaLhJfHcyldnz/mSLXaq2t43//4s2WzltXQuk8ns4gLRMZ3Z82b+eUVRNUOFq/R0ERc6/Hcv38tWfJwHF/zhrQ1utdGdgeX4wv8smz5iCuvh/oH+vHQCUEVaaFx9aCjm55WYj/cLDSELMlrLaSqzVJOjO1VX3qql25/NHGTghdQhA6OWcpmsAK5La5f+zGjEZTaZ5AHBVbh8zsyPsqsZOiR77hFcZlx1TaEBICRPrDsNvq//hN+UFmC3z+Wu7GPRGFToL8iPvHWq7lYgGBAipLC4zie2LcE8hK11MnKSQabicYgp2Aa4kkQnMCxoaXrpvitJuBKe2AMZiVg4gnrJEkTx6gQnuRhUKdpxZLt1ykz4Uu7d8D9iNvdxdj7WuFGjCUnDRiQxLUw88s3fP916Xu5AmqSUeC/EcrlY4skjJ0SJLHS8n5i/ewcmHO7A6wJDA0g5w7JZqVNSSRG9hw4nw5cr3bVywcbv8q7o+rxfm3A3VUmX8gokzn704AnxljS0gDZ92KCQRYsrdDm+zdCRPWTlUTxx+FgNahMrhZS/eukWy8DhRl7TfdioWx3d6DHXpdXLtrrVyqJjxwvEAVFYmTBqyo7s3HkZqGos5RvJdifZy801o7QODeSzTGtOE31b7x+cNmyyqRRyhv1MRapbXUZ6N34M5C2KIcrDP7JqRhlTciqV0+ZI6DEi876XYJyQD1WUEQJBOKym6I4Deo97ou8ds9PHPB4a08lpgzTJOi4/7nLati96Q7TbjEFGecs3KyO7XZcgPyWf6GAzu/re8iDNu5oRfqi6Bj/mMojGiExLC2PjrBDaZ9qsMfL8wJf6Spc2rd7NtCqh3W0PjyJfaRYMnR7615qNP/+86ectK/6SFcRztm3L17odEIKH/fHDlyb0iTa6O5U6OHn4zDefuyWI/RZPb9wII5t4fOXKww5KWBU08pnXHugaKDdRUM9HX/v9UPZDsh9c/tPJaohDLgJ9SgVrfthMaiCv7/vrqf1ptBTzVi7d5nEgcuxdtS6PUuB1GfdP6eaxRgvhw1/6jgr/86ZNXzzW6doZiMpyrSyELoV+3D1ralDbKHMpbTilbk1l97V3yrMJLPsEGZhwYNIn79PLCbiZBMOMyylI6LF6aHGyiY/ljuUme3K/cemjpqt1gBY9mNRn9K5lHxz9+TutwV/u31D6SvJydix+JyQmOTQmLTQmGV4zMjYp17oEuTzAtN3qiGnfvkvmmD3rvpOpuC7JNF5cMefgUasUh36jChk554cf7z2Yr23XqVNMYIU1gXjYS3CdXfjewsnpE+PVQuSo15Z0nrBlx4lS/5TMwT2iDTSGm3Z/+ObiS+jE5Wv/8damYS8NAlBUAV0m/Pnze/7PXFwAU6wxNCxQ516FlMSLS976ZB+tC4pHF7zxze0f3huv5oW2w/7w9bopRw5f5GM6pkT6sfJJjpNfv/FZzbM2udxS8bofNpWNyArkdcHBdEnMXbVsx+V1HsuWjz/8ZdQLAwJVhq4zFvw4bOsv2Re4qJ6DMjoEg4Ik8fz3r3+0pzai8yKeSrevkYUIPzq/kPheY6wm7FZgx1XJJOJzERAd/R5WOEyEZABUxg+SkVFKA4rRqNEJx7ctcdpJXSRx07Y5S+qgCX1ufxxanNVkdVhtNpMFBreeo34d3bG/w2qmORLDObB3cteKrd/97ZeFc512WmaV0etzSd0RPeWhkjnsrswxj2r1RjItNJcgFS1//9NDbL4NZ5DgxJ4ZfTvHGC9t+uhbd6dRRWaO6OomqhoLjTXKuY+/ui4XHte8EJjQJ+uuCeOzehJ+sNK6a97jM/51UPaSEU9/MevXr606K2dIWRpDIqKiIoI8+HGVH1n0wkPPLSfAIWAxds6MPy47xTiOVwdEp/VOT41y48d6csnz016TF7JqLJqcyrqlG0oqhC5eWPnjzsorpWLOgtlPf3ZQZqqIzoPH3jNh7KAUhh/b6eUvTf3jCmiVDRK8jka15cJc4KSEHjcZA/xw5hvrlD7Z3yoSlTsxwOPPNszJ4SoCk9N02C1ns7cWXTiWl7NHo6MuS1qaS1Rrje26DoV3HErCBleUQMASqlan7zzsgfycPRSTMSK+aPR+MNPZTEU2c4lfcFvexZyA6h5omGDBbnOGRkYndko/vHsjoZqYrRkEy663H3ww/8lZ943sEasvzcnevW3F/H/+d2fcMzfd3r0dJgjqDvdNGvDmrp+8lNZy4D/Tx+wc+/CUO0f2S40N1Vjzz546cWDzks/mL9rtcbOj2kqlu+dNHbMiY+z420b079mpfWSwv15wmEoKzh3fv3PT8oULf9yTf8WIbzn61azbty2698G7bx7QIykqxMCZCs8f271x+Tf/+WL96RoMy1fJFRD/YV3JreOYO4F4fuWPuyr83uSYrtzVL94zbvXEhyeNGdSjfYQ/V3LhVM6RXWuQx5qTDTMNYhk1wJnaY3//DTyn4E3jpqCrqurtJ3odDhxt44+dc6QBXh7jPd+hiWkNupzdazd99iIvqIAfYFVW9WCw1vkF3zz9AxlUclbuFODT4LSvfH+mqegClD/ckqFIGiLPDbr/FawpiTYblnu8FbD6+0iN0hRF/xDd6i8/WvftO4AQHKqVY+mrl1fLvVp/RY76McdHJvcKjkrARL+u+EEPlCkIHRpeCOiN5DEnuyDQmpD8R5zGbuCVJzZBq9MZg2Suu2Kq5Dng11MGpiEwzGBLktx2bvzg9UPYH+uA2V0nQ6reLevOi2ZEXHKPwWQJbF5GhXrXTHmwbhKoJ4Q8s2cpffQs5oJASqk8MHvNn43eBAF5FkRe2BpySsBvpIDUdAYd/sA8MqIIQxI2ShhkWwUjpwqTtMpuM1nLC2FIJ5u3O8DeirVUdWn+aWtZISsepS4n3iY2tdvNj4ZEJ2O/KtLxWtpaIhAsVZzDLka0S45u37WWmMqtFiyBesyFaA4iz5573Dq1TUI3mwUURFN2X8REpgLEoxRoTRQnX4caXQL9ApiBH5Wp6OLx7T+IdiuWQRN63kKrTAAM3KCMQbC80YoqljbVWnd20J3slhM7lvUeN4MXVRKtKBGUsX3IbjXv+fF9PAIrAkFIpbKbShJ73dpv/GzOxWOy5Etpa4/DkEx2Qj8/IT6199mjVb36a09AudsSJFBHCAEnpIFxIZFJ6WN/G99zINuzQIGGZG8oIvwwoIEw8MVfxwcbXFqtRqXh8Y46AAAuPHtXzgOEYOPCwg68cpL7ZVnKTHB1a5vQvfOQSfCLw/WygjOyGQA5YgPf0V/+p9YaOg+fjA0OeGck1Dog7cDaz/Nz9sFHm5kTWPFodbUbIGmzWGT/iWtvQKo5VYdrE5Vw7akpKdyIEqgLhBh+dMbAvnc+3a7bTRq91lRqZyRRR/xInFHLBxnhiEDbFkovXcw9ti2282C/4KALR/fBN9QvKBxTC6y9XTiyNb77UH2AX8mFswBOj1EPOSwiJjNrPpldkpuDN3DJuMU2oUMbvsjP2RscmYiNsXaLqfDcIWhxtCjEtk6gYQAkRIMVDsZnt0GcTcW8wr72RkUBUE7RzodExDYji1zthVbuNqgEfIcQ4QddcPijb4e372Qpg5HZJsAazaZAPnVEUrHIeceg5cLp8EMXL2iKLpzc8uUrBWcPtTu02eAfeiZ7HU2ToJ457Rqd4fzhLT998ERsl8E5O5dDwet12yxoYrqAgOiU/oXnjmjwCjvMoVjumCkVnj2Yf2ovkSSoSa3FHwnKQ3xQNR1208H1n8NFSDZIsHc9XGug4YNmYZzBPxh2P1jkrjVF5fkbTQK+QwhLk7ohU14PS+wER2xShJgjAurrC36oJ1N/5/z0XKgfoQ6Dt+R0bFv0RmneSb/giLzjO+EuwGwGHk5jpoWSvJNFK47grDnAYvv/3sRWhcT0TLullOwHntwJRXBE0erVnIHNheT0cZlhm5EnsZDOeOnU/qILx8PiUkX22q8GCxIHhlOpfBdmg+WsJHTdJeBbq1Mv5PqP/2NkSjdTiZXw4zv5eKoIm51GzYX5VxjiQDUOh82sUuvIgEYAACroeGuWG3o/LdTCPsf2ArmwecJhLTOX5puKSs9kr8c0iUGIopEGxfYd4MQdj9pG4KGdDi68mcsBBKJ/263lmMIFhsfSgUENF9jkDvm7DzxpuISVlG4MCfigzLB1zLC4tKR+o02lMIgxE5lv5FMhA8YEXICOzrpitgQehxzo/AyJPbOgs5E5mx30A1Sgo2PaA8ccOBDAKsCgStqR02n3D4mOTYFoq8QAAAqpSURBVBtot1lFhx2oQyJM5bPBx1Q+sofw48YVcRRSgJkBO8AxfbKWF2n1/r3H/RYGBvd7ixuigYjekI4Kbgpm9p4VJbQ6CXhnIaYZcThIBGcnYq8AXKDQbeTB3kdpoZfhDyyDg0SYFxyxDb3BTuDRy1ny8kVKNjZtcFh8Z3gblOSdunD4F1NJLmzYlCMzhuNLYJuItKGTMKvBCimAFByVhO13xReP20wlSFZWKwFI+JVG0lE+d4THd85e89+Cswc7DhjfJi7FYbHJhnIfC197NBQY2Md+1rLCXAwKtUdW7rZICXiHEPplYHhcYq/RNouI7WZ1Ao8sMnADzYJ0HJxpRCIPTHIEuIrm5eTA5gZVjRAGl01LeerQSemjHmFEQsdQFZzOgvENHEKqoyDAmH3x6DZj+sguwyaERKX8/PUrOGAkc+KLGj3cse3bF72Vs3ulxhBAGp1LDAhumzH+OZUaZ8Q5uo58gLxAec5ptcsv/6rrKFBT2zMSgq2PK8g9zQhQCa1OAt4hBJG0Tx+lD9DTLEjey8DMxL4HdC34vGM7A+tjLtgh4DSwYcELZQVnwS3MgQ0b5iyRyb27DJ3ksDiwK05WyUJiE7uMmLJzyTvkPsNhwVS3b+W8A2s/xZtUEtMHZ838NyY5eDer024zBBhCYlKwoIQTfGheYqeiYiIk2eloZ6eNdEVk79nYKnOV7zWoPqasxEGNww7As0eUddXqpdTir3qfC0HtwRl5TgebuLNQV6EQx2BnEvw5iV5gIRCwaIPD38hY5llTwoyobXIvnZ8e+AHnkFeOCkzlQtZafQBNM5j2CFTg2cJzh9F9sewDaMGOB0zarc7YtEHhid2RJixv/m2iE3pmYeEIRaUCy2WmT+iQDYMfd8qwBApqS7n17NE9dRWLEr9lSMA7C8H2ZQyLQR+uhxVOlhG6LlgI+6mYJ7b7GqYx5GHmMU7gKlB0lSaEB5mdgLntsAcZHuj0RnylU6+Ab5jjyBoh4UCFIQ/OtZUXwl8Ba0owJMALTgZPZdjXYwioqaUBY9TCEKjZu2FDacEFykvR5WoSVsu97gMLUa9V0woicYYbAXUVCC1jMoMAPmBnDo5MAGPQEduMhdDzYLnG0XCmwmJBA2JxglvI0q1Wnd67ymEtpyUX9tZuxDUGhoVEJQEzMokRrmSCEp1Q6gLCYnEmI1Q+JEIFv4Yy115HjxYH/z3Xsd0bEJmM8UpofRLwzkLkLgB2uMbu4XkczINjD7SGoMGT58AYvWHB80Xnj2LRFhsZcEjVrmXvZU58Vo2Ts3Eao447vX/XgfWfMT8D4Benotp73jotoedIbFWATx1mO3KpiLsYisiMAA85T1kZJdB/9UZ+Lf1BBj+c98zl9hP7NyOmfJxDLY8ot1qkBLxDiLxKyY+G7Raob3ekrTQMh8QYKtLBIE2/4GC42xScPsBrDbiCFZuzBzZu/uK1qJTeKkELYwP2eBORME8crIfCvSgmdSDsb9i2TQeAIEU2salACPtyjVj3qZVlCgJmDHrNwT2/WMoKFS3OJ8G1xEjeIeRyWC0lFw3BYZgO1U9XAfLorDcPm8kTeppGiC54J9BMxrPQhKn5qT0robzBQsD2KehgV2B3wV1OzHa0xgB6BQPxohs/Td8ocmnhCYHzTS3l5cvn/5nxT1NAt+krq+ToVQLe50LoH7nHd2nohGb3njaviV4VQZ5mO9nZOh4ao5N4zMWFFw5v1Whxco/MJjRhgg8BPOVwV2cIgMGN+e+QLQ9GgoIzB3OP7VRrYeCmgxMaQz3zsWo0KRNFY4D60I41ZUV5rCRXmUJ8TEmJdsNLwDuEUMWTO5bYzU5epa6fIocOBgpywLGBmaw8f0CFDvN+uHyjQ2L91GYphbcO2d/kSQwhFhvq4OxDpyTjIrkjYHssY6DrEgg5btu6pDMYcs+cW/PVWygbK68SWqkEBJ3Bv5aq+/v7Y9aOV/cEhceHJ3V02t1H3tSJAeQeRg4KWpmIGJZcLuxWCI1JgTkBOOk44O6Y1Ey8iQ1AIp8zGtYxa1InpmdFduiTfxIH8YiwJcR1G0bGcBZqKXZj3AJ4kCzyxbRNoxXKCgs+nzuVbNmVAmKYTFe+zK0xiqKk2Zwk4H0uJJf20Oavk/qPps7NupE8GPtYEbm3Wx2cyUbnlbLzfklBg4UgIrHL0Clz4bkDOzUUutDojuv/+xzzYYNfdjnOJU0dNBZ7tEOjOyDbuK6ZeDF4nbL2sYReo7FMqeqYv6F0eoN66cfvF17MgVVDMcR5lV7LjuAdQtCs0KFxINuJHauS+44wlci7pkESxAY+SgcRoX+VWclTjqlzjEnojF8btsHqA4KdNivOKvULjYLPjrkkDzH8QqNxlqLNgt0KzriuA5ERjlmU31ZUp6x9LGFN0SrIB1+w1mTw18OEsODVp4/sXsOMHM3nBMaaaqBcb1wJeFfkGE5Ih7l45OfIDgMCwyPZkXFsy4NHt/FaRkSEgwIsCnBZ05M6557QAEXomWznAm2p0Br9Q6KSYXnDe0FxRmlITBI8DKBJ4lN0sjgs+A5drwWrJULl2rFXS0jGAD2Y5/v3/3R83wZ5JLjqcUWRq0WeLfWWz0cxMu4Iiogf+di7gZHtcOpI/boyRm0QUXggoZLM3FVoDAY3ZoGjU0Sw/lNNjCZtCgI4EKs1YCc5d3jHlu8/eAEzw5r0NxhAlKMYm7R9mkFmPrIQlRQkYDUVn9672hgcGxLdHqftsO05pJX5XhHEtzs5h5NeBYmTFyo/KqMJW1lhtMAH+Y8yhJEZ0PcMGiSmvKBLO5rURn81JmMXTu5b89V7qz7/GxayiDlr0N8UFmoQ8d9YifjMQqxaQBEZnTkuMqln+m1PBES051U6nV7r0bB8rTv4B3odztHGPlZ2hAkBRYbKdQBMlVID2A67Hf5EVkv5qexN2VuW5xzY5l75YWNGlSfcFxQWqkkyLfh63SDEBOGeGuGbLiDEPzg6KLwdnVlVF6aQ+yGABPdt7MMjR2ty06YF0+sIIaBYrhsIsLwot6QwD/uO7Fa3kboW8qnoHwqEWjBUaqqad4tclSdpDJbpyFZWhL+CM9lV4rScC7KHHh3tUIPy1nKqqtSkXhKoB4QoH1mdY7YxMEe9cmYPXcOj9c/U65M0SMhOeGTJVszWXgXWqiPUE0IemaGLXZO7TY2zilbdKErlbyQJ+OQjdyNVSCmrIoGmlYACoaaVt5Jbi5OAAqEW16RKhZpWAgqEmlbeSm4tTgIKhFpckyoValoJKBBqWnkrubU4CSgQanFNqlSoaSWgQKhp5a3k1uIkoECoxTWpUqGmlYACoaaVt5Jbi5OAAqEW16RKhZpWAj5AqHm6gjatmHzKTRGUT2JqaZG8QMjpxIk5La3OjVQfCAriaqTElWSbrQS8QMhGb8ZWMORj80lMXEpoXRLwAiGL2XxtuxlaizQxzEBQEFdrqbBST48EvEBIFMXS0lK2K0gJNUqA4UeCoCCuGiMpN1qoBLyc4INaQ7/HgYM6Hc5QxK+mOcLtBhE2TiKhktIAA/xYLJYbpNxKMRtSAj7tWkXnsNvtBqNRp9Wq1T490pBlbLZpMfsB5j/Q3xT+abat1NgF83KCT2Nnr6SvSOBGl4CXudCNXj2l/IoEGlsC/w86BArmIC6tcQAAAABJRU5ErkJggg==;" parent="1" vertex="1">
          <mxGeometry x="610" y="325" width="181.87" height="70" as="geometry" />
        </mxCell>
        <mxCell id="-F9nOF9U5pAo5h1Y6MdJ-1" style="edgeStyle=orthogonalEdgeStyle;rounded=0;orthogonalLoop=1;jettySize=auto;html=1;" parent="1" source="2mZzgcwf6ATfASOrpY5C-23" target="2mZzgcwf6ATfASOrpY5C-41" edge="1">
          <mxGeometry relative="1" as="geometry" />
        </mxCell>
        <mxCell id="2mZzgcwf6ATfASOrpY5C-23" value="Automatically unzips compressed files" style="shape=image;verticalLabelPosition=bottom;labelBackgroundColor=default;verticalAlign=top;aspect=fixed;imageAspect=0;image=https://raw.githubusercontent.com/wiki/davidnewhall/unpackerr/images/unpackerr-logo-text.png;" parent="1" vertex="1">
          <mxGeometry x="335.27" y="775.0799999999999" width="200" height="100" as="geometry" />
        </mxCell>
        <mxCell id="2mZzgcwf6ATfASOrpY5C-41" value="Hard drive where all &lt;br&gt;media is stored" style="sketch=0;pointerEvents=1;shadow=0;dashed=0;html=1;strokeColor=none;fillColor=#505050;labelPosition=center;verticalLabelPosition=bottom;verticalAlign=top;outlineConnect=0;align=center;shape=mxgraph.office.devices.hard_disk;" parent="1" vertex="1">
          <mxGeometry x="175.54000000000005" y="755.0799999999999" width="100" height="140" as="geometry" />
        </mxCell>
        <mxCell id="Ou6aJvPcGe9I50dE5qYa-2" style="edgeStyle=orthogonalEdgeStyle;rounded=0;orthogonalLoop=1;jettySize=auto;html=1;" parent="1" target="2mZzgcwf6ATfASOrpY5C-17" edge="1">
          <mxGeometry relative="1" as="geometry">
            <mxPoint x="75" y="554.0799999999999" as="sourcePoint" />
          </mxGeometry>
        </mxCell>
        <mxCell id="-F9nOF9U5pAo5h1Y6MdJ-21" style="edgeStyle=orthogonalEdgeStyle;rounded=0;orthogonalLoop=1;jettySize=auto;html=1;" parent="1" source="Ou6aJvPcGe9I50dE5qYa-4" target="Ou6aJvPcGe9I50dE5qYa-11" edge="1">
          <mxGeometry relative="1" as="geometry" />
        </mxCell>
        <mxCell id="Ou6aJvPcGe9I50dE5qYa-4" value="Provides FQDN for remote access" style="shape=image;verticalLabelPosition=bottom;labelBackgroundColor=default;verticalAlign=top;aspect=fixed;imageAspect=0;image=https://seekvectorlogo.com/wp-content/uploads/2019/04/cloudflare-vector-logo.png;" parent="1" vertex="1">
          <mxGeometry x="143.3" y="1210" width="161.94" height="90" as="geometry" />
        </mxCell>
        <mxCell id="-F9nOF9U5pAo5h1Y6MdJ-14" value="" style="group" parent="1" vertex="1" connectable="0">
          <mxGeometry x="40.830000000000005" y="1350" width="366.88" height="170" as="geometry" />
        </mxCell>
        <mxCell id="-F9nOF9U5pAo5h1Y6MdJ-13" value="" style="rounded=0;whiteSpace=wrap;html=1;" parent="-F9nOF9U5pAo5h1Y6MdJ-14" vertex="1">
          <mxGeometry width="366.88" height="170" as="geometry" />
        </mxCell>
        <mxCell id="2mZzgcwf6ATfASOrpY5C-39" value="" style="sketch=0;pointerEvents=1;shadow=0;dashed=0;html=1;strokeColor=none;fillColor=#505050;labelPosition=center;verticalLabelPosition=bottom;verticalAlign=top;outlineConnect=0;align=center;shape=mxgraph.office.devices.tv;" parent="-F9nOF9U5pAo5h1Y6MdJ-14" vertex="1">
          <mxGeometry x="113.91" y="25" width="144.82" height="120" as="geometry" />
        </mxCell>
        <mxCell id="-F9nOF9U5pAo5h1Y6MdJ-10" value="" style="sketch=0;html=1;aspect=fixed;strokeColor=none;shadow=0;fillColor=#3B8DF1;verticalAlign=top;labelPosition=center;verticalLabelPosition=bottom;shape=mxgraph.gcp2.phone_android" parent="-F9nOF9U5pAo5h1Y6MdJ-14" vertex="1">
          <mxGeometry x="278.35" y="29.920000000000073" width="56" height="100" as="geometry" />
        </mxCell>
        <mxCell id="-F9nOF9U5pAo5h1Y6MdJ-11" value="" style="html=1;verticalLabelPosition=bottom;labelBackgroundColor=#ffffff;verticalAlign=top;shadow=0;dashed=0;strokeWidth=1;shape=mxgraph.ios7.misc.ipad7inch;strokeColor=#c0c0c0;" parent="-F9nOF9U5pAo5h1Y6MdJ-14" vertex="1">
          <mxGeometry x="14.349999999999994" y="25" width="75" height="130" as="geometry" />
        </mxCell>
        <mxCell id="-F9nOF9U5pAo5h1Y6MdJ-15" value="" style="group" parent="1" vertex="1" connectable="0">
          <mxGeometry x="134.27" y="995.0799999999999" width="179.99999999999997" height="170" as="geometry" />
        </mxCell>
        <mxCell id="Ou6aJvPcGe9I50dE5qYa-11" value="" style="rounded=0;whiteSpace=wrap;html=1;" parent="-F9nOF9U5pAo5h1Y6MdJ-15" vertex="1">
          <mxGeometry width="180" height="170" as="geometry" />
        </mxCell>
        <mxCell id="2mZzgcwf6ATfASOrpY5C-2" value="" style="shape=image;verticalLabelPosition=bottom;labelBackgroundColor=default;verticalAlign=top;aspect=fixed;imageAspect=0;image=https://libcec.pulse-eight.com/assets/img/third-party/emby.png;clipPath=inset(30.33% 0% 33.67% 0%);" parent="-F9nOF9U5pAo5h1Y6MdJ-15" vertex="1">
          <mxGeometry x="34.99999999999997" y="10" width="111.11" height="40" as="geometry" />
        </mxCell>
        <mxCell id="2mZzgcwf6ATfASOrpY5C-3" value="" style="shape=image;verticalLabelPosition=bottom;labelBackgroundColor=default;verticalAlign=top;aspect=fixed;imageAspect=0;image=https://digitalmediawire.com/wp-content/uploads/2017/06/Plex.jpg;clipPath=inset(28.67% 21.33% 20% 20.67%);" parent="-F9nOF9U5pAo5h1Y6MdJ-15" vertex="1">
          <mxGeometry x="46.109999999999985" y="57.86999999999989" width="100" height="44.25287356321839" as="geometry" />
        </mxCell>
        <mxCell id="2mZzgcwf6ATfASOrpY5C-6" value="Streams media to devices" style="shape=image;verticalLabelPosition=bottom;labelBackgroundColor=default;verticalAlign=top;aspect=fixed;imageAspect=0;image=https://idroot.us/wp-content/uploads/2021/03/Jellyfin-logo-300x161.png;clipPath=inset(18.32% 21% 27.02% 17%);" parent="-F9nOF9U5pAo5h1Y6MdJ-15" vertex="1">
          <mxGeometry x="29.29000000000005" y="105" width="126.82" height="60" as="geometry" />
        </mxCell>
        <mxCell id="-F9nOF9U5pAo5h1Y6MdJ-16" value="" style="group" parent="1" vertex="1" connectable="0">
          <mxGeometry x="60" y="330" width="330" height="60" as="geometry" />
        </mxCell>
        <mxCell id="Ou6aJvPcGe9I50dE5qYa-16" value="" style="rounded=0;whiteSpace=wrap;html=1;" parent="-F9nOF9U5pAo5h1Y6MdJ-16" vertex="1">
          <mxGeometry width="330" height="60" as="geometry" />
        </mxCell>
        <mxCell id="2mZzgcwf6ATfASOrpY5C-13" value="Manages TV series" style="shape=image;verticalLabelPosition=bottom;labelBackgroundColor=default;verticalAlign=top;aspect=fixed;imageAspect=0;image=https://raw.githubusercontent.com/linuxserver/docker-templates/master/linuxserver.io/img/sonarr-banner.png;" parent="-F9nOF9U5pAo5h1Y6MdJ-16" vertex="1">
          <mxGeometry x="9.999999999999972" y="5" width="142.05" height="50" as="geometry" />
        </mxCell>
        <mxCell id="2mZzgcwf6ATfASOrpY5C-14" value="Manages movies" style="shape=image;verticalLabelPosition=bottom;labelBackgroundColor=default;verticalAlign=top;aspect=fixed;imageAspect=0;image=https://www.desdeelreloj.com/content/images/2021/07/radarr.jpg;clipPath=inset(25.78% 16.67% 22.67% 15.33%);" parent="-F9nOF9U5pAo5h1Y6MdJ-16" vertex="1">
          <mxGeometry x="180" y="3" width="135.18" height="55" as="geometry" />
        </mxCell>
        <mxCell id="-F9nOF9U5pAo5h1Y6MdJ-17" value="" style="group" parent="1" vertex="1" connectable="0">
          <mxGeometry x="119.53" y="60" width="223.47" height="110" as="geometry" />
        </mxCell>
        <mxCell id="Ou6aJvPcGe9I50dE5qYa-10" value="" style="rounded=0;whiteSpace=wrap;html=1;" parent="-F9nOF9U5pAo5h1Y6MdJ-17" vertex="1">
          <mxGeometry width="223.47" height="110" as="geometry" />
        </mxCell>
        <mxCell id="2mZzgcwf6ATfASOrpY5C-10" value="Finds TV/Movies" style="shape=image;verticalLabelPosition=bottom;labelBackgroundColor=default;verticalAlign=top;aspect=fixed;imageAspect=0;image=https://i.imgur.com/ZecgKfm.png;" parent="-F9nOF9U5pAo5h1Y6MdJ-17" vertex="1">
          <mxGeometry x="10.469999999999999" y="65" width="190.83" height="40" as="geometry" />
        </mxCell>
        <mxCell id="2mZzgcwf6ATfASOrpY5C-47" value="" style="shape=image;verticalLabelPosition=bottom;labelBackgroundColor=default;verticalAlign=top;aspect=fixed;imageAspect=0;image=data:image/png,iVBORw0KGgoAAAANSUhEUgAAAdwAAAB3CAIAAAAmbWY7AAAAA3NCSVQICAjb4U/gAAAgAElEQVR4Xu19CXhVRZr2vdluErJAAmELqw2ygws2AdxRENTudsQF7dGeVly7p11wm7ZF+2ls/3b8R1ta27W7xQXEZVwQXEZBkEWdliVRdkJCSAJk37c77zl1c3JyT1WdOucuueh3n/vATZ1avnqr6q3vfPVVlTe9T38PfQgBQoAQIARiA4G42BCDpCAECAFCgBDQECBSpn5ACBAChEAMIUCkHEONQaIQAoQAIUCkTH2AECAECIEYQoBIOYYag0QhBAgBQoBImfoAIUAIEAIxhACRcgw1BolCCBAChACRMvUBQoAQIARiCAEi5RhqDBKFECAECAEiZeoDhAAhQAjEEAJEyjHUGCQKIUAIEAIJMQvBxBF5/Xvn9u8zdOSAcb2SMyFn/z74cwh++PH1e8oqi8qqivGjrql6f2lBWeXB8qri/AMbY7ZGJBghQAgQArYIeGPnQCIw78QR0yYNz5s4Mu+EgRNEojNGxr/4gJG1Pzt/aP/7PfsO78g/sCm/cGPBgU31TdWifCicECAECIEYRKDnSRlcnDf2/FknXT5pZJ4tQLaM3I2j/Z4dBzau3briq50fNhA724JLEQgBQiAGEOhJUp42dnbe2DnnnXyZIg5OGdlM0Gu/WfH1rjVf71yjWBZFIwQIAUKgRxDoGVKeddL8q865gxmIRdX2xnkSk70JPn+8z5vo83jiPXFYlYzzxCV4Oto8zQ2eyhJ/e6tmu2BWiyAd2fynFkc3dBypKnpz3WPrt70uKpTCCQFCgBDoWQSiTcpyOo5P8iSlehJT8C/ouAsZnXkZ/2p2ZPYbjFy2x9/RrtmRVRhZi9NJzW9//tgGouae7XpUOiFACPAQiB4pTxqRd/3cxdwVvPgET3JvT2ofb3wiR0YuIzPNt77SX3lIY2mDcFm48aeWtjtlGyGFpTte++TBnYXkrcHBnIIIAUKgpxCIBiljKW/h3MVc23Fyhielj8fXyyuqv4SRQbdtrZ7DO3VS1plXxL88jg7o19CXV3zyIC0DivCncEKAEIgyAhEn5bxxc2772WNpKZqjsfGBvTgFqnGWNyFJVl9GpiyGwc7MfKHxsN/T3uYt2dnhmpEZj8Nt7u+r7vxm12qZKPSMECAECIGoIBDvS0mLXEELL1h8w7wHkxKTzUWkZnn65Hp9aV5t4U7jXf6XWSUCXKzHMYVojIxPfY2nscaljswYGf8mJCSfMubiFF9Gwf61kYOCciYECAFCQAWBSGnK8Kz47YLngizI8KZIH+BJ6EbRQiE7NeJO00QndTMjBcgUanLZ3o72djdWC4ORNbbvNDoXleY/8/b1FdVFQpnoASFACBACEUYgIqQMLn7431Z0M1l4Pen9vDBZqHx0tTjwCZgmdOrUP9r/IOKWRt0lLnyMzOzRDY3VTyy/vLg8X0VOikMIEAKEQNgRCD8pw8vitwueNzMyHN0yB3rgbqwovUHErU2ethZ/Wwv+9ba2+v3tcIDztuNf3ZTB1XbFa31dnnPCOHqeWPR77u3r9xSRV4Zic1E0QoAQCCcCYSblWSdfdvsl/98sYEqmt1c/BxK3Nnuaaj2tTf6WBo0iDfOCpiN3d24TcqvJItEZR5WRWXEQ95XVt2/ZQXtMHDQcRSUECIGwIBDOhT4rI/fK1lwsVATt6PA0Vvtryz31FWBkD9uq11OMjHInnDC7ora4pLxARXiKQwgQAoRAuBAIGynDanH/VS+YxUrr503OsGdkf7unodJTW+5vrteMxfgEa8TR1ZGNmWD8j87fW7ypsqY4XFhTPoQAIUAI2CIQHlLGyt5D/7rM7PoGRvYp+No1VPhryzTV2N+h24hjhpE1q7XfM/6E83cWrqutP2KLI0UgBAgBQiAsCISBlOH99p8L3zGv7IGRk3rZiNfe4qkp7TQcs1W7GGNkVAAuzJNGXbR113tNzTU29aHHhAAhQAiEA4EwXAcFf2QzI2NvSGKqboIQfxsrPdWdZ7wZvhYxYrVgOjKwZXaM5OTMqy96JhxQUx6EACFACNgjEKqmfMPcB7GR2ignpbc3OV1mR+5o99SVaQoyPqZ1vFixIwcxsiahx5OWmpPiy9xV+Jk9nBSDECAECIHQEAiJlEHHC+c+aAiA8zbl20Pamvx15dppyPgcL4wM/R2f3IEnHT5ScLRyb2hoU2pCgBAgBGwQcG++wNlvOGnIyB5nz+O8N51r+d+Wen/dEW1BD5/ji5GZtJec92iyr9uxSjbQ0mNCgBAgBJwj4J6UYbjobkrWrBYiO3JTjb+hIiDd8cjIkNnny7zg9AecI0wpCAFCgBBwgIBLUoZX8qyT5xvlJKd74uL92P7M/TbX+Zs6nReOU0ZmYk8Zd+nwXPvbXR3AT1EJAUKAEOiOgMtt1n++ZY1xAhwMF2l9vR4viIvzaW30NFYFwkNk5MLS/MLSgm8PbjxaVYSsDpYVGIfTZ6XnZvUenJ2ZOzB71AmDp+Zkj0xKTPUlpmoysc3Zpi3aepixtBg4BdQUoj3qHqcrpKQ8/5nXLuDUk4IIAUKAEAgHAgkuMsF2avOZnDi/PnC0hCWvjjZvY1WArENk5JfWPLBmy/OWEgIB2BKN756izezvlOSMkYNPmzx69qjcvGRfeqov0wtNXidifFwzMpIP6Dd+8tj5W7+lYzFETUHhhAAhEBICbrwv7jcdAgePi+5H2HdJ4/d7sWFPo8BwrOxNOuHsk0efv33f2gbDFCKueFtb85HKfdv3fLQlf2VLW3NSUlq7vz0uLjEhPjEURtbSejw52eO2bO22oVwsCD0hBAgBQsAZAo7NF+ZTh7xeT69soeGisdqDbXv4hKgjB+wPup6Lq5v+uOzyg2U7HNUSt4pMm7Rgwqg56Sl903v1g2WD649s0aOtmjUL8b/z8R3bvlvpSIZIR540cUJGRvrpM2cYBRUexKdo+46C6urqSJfe4/mz6k+cOKF3ZsBDpqq6evv2HQeLigFC9MU7cfSoM888PTsrC63wyqsr1AUQtWMUKjJ06JChQ3J7FsPMzMyJE8ZBkmFDhxqgfb5+Q01N7bbtzka9OuaSmGlpaeecfeb4cWMR55nnXjh2rNNdQZJG+qhv3+xZ554zYvgwxHr4kUe5cR2T8ot3bMK+apYX9lInpnCz9bQ1e5prtUdhZGSmqCLHP6+87n+dX6mXlTnk7FNvHjr45OSktN5pg+I6DRosW3VGRsyqmuKlL3XRHx+CyIei786bO+eqKy/HSJaUBlZ67/0PPt/wxfurHNxD+MiS30+YMJ6b7byLL+GGqwe+8tKLGH7W+Dt25N993/3WcG4Iq/7pM6ZfOE9m5cec9N77q99b9YGj6ptLPPWUkx9azJHqWMWxn19znTnmmBNH//Lfrp13wezc3MEsfO269Rf99FKu/ObABVdeduHcC06fOZ0LC4uJdgQxPfXXZz9f/4VthooRUNy8ubNRtC2GKFTHcE0k5nh0Y12GOZLqo0ao/suvLkc7up5oX3z+r/1zcqzgPPj7JZu3fGmEp6amXnvN1T+9+MLTpp4ap11bp31O/fHMXbv3mNMmJSW+/QZ/xr3+hpsPlRw2IoOLr//lL1BN81DNyBpglQQhzkgZu0VguwhkBDVZO5YTnGb9eBsq4YkREUZGefVNVYufv+CYq3ub8ib//MeTrvJ643unD0xOynDByCzJG6sW7tq/xlrz6IRg9N5z153411Fx6MpLHvmT4ri6+aaFf/zDQ9z8F/z8F2B57iOVQPTL9Ws/5sa86dZ/f/mV5dxH5kDQ8b133XnVgsttY5ojgE3+8vSz+DqllfNmnfPGilesZR0uLT1x3BQWnp6e/tifHr78smD+lZMyOOjmG6/HV05GQUWjHe/5j9+F0gTIMMoYWtFDCKs+tAoIw40gCkQnweTkQnfO3/rVkCG51mwvX/CvH6z+kIVfcfl89PysLGy76PaxknKyz1d+uNCaG0JOmjp97959+AFOv/03v7p70R0+X/At0SJSduYSlzema0c1TMlY3+M6JmOfSOQYGZYHbHr+xbz/5GJhG7hx60vLP7itqaXuWHVxFXZ8c1b/hFYLrbKduv+oEefblhWJCOi+77/zJr5OGRnCIO3TS5/YsPZjuVrExJaQI5SaUKp2840LRcmh0ooesXAMYwyYHd986ZSRkRxp7737zh3fbFGpvlyMoKdTpkzavOEzKyPLM8HkhLaASI4YGXmiHfGqIXrbkBfKcAgdw5tuvN62IHkEtALaAtV3ysjIFq2PeR21cAqdXCTw5rNPP/nMU3+2MrI8oegp8nnnrdd/99t7rYwsSoJwB6SMLXxm3+QE8H6Aorr98Hd4taM4dbJjWrSZy/SQMNwhMnpY3vSJXY7SkhpaHx0++u1rq35dWXuorvFYWcW+jo52Q1oxRwfLPGHMpdhOYs08oiHoixjGLujYLBUb0k89+bi8Q0OdFBlD8cIbSjVFyVGcXIdlLAYVPpTSUWvQGaofSibmtOecfdbHq9837BWK2TJaccFHRv4gtfffeUPeiFZhwoUhrFvQDJyWzuRBKuDvelIxKoWegOEgt91ZERCFwGSxZtU7TmdWUW4Izx08aP1nH59xumM7pwNSzhvXNRThm+zx6rRr+bY2aubZiDKyxux+z4UzbpMgIn9UWVP0+urbKmsOtbU1Ha0ubGe8LNSagxlZK9/vGTXiPHkp4X0KvcCWSdVLBCnYDmnYELkZYlC5VjaRUDSSX371NW5xLJBxUCgsZs6ccaJIkiAxvFjR5n0QPnbMia8uexG2Rd5zLYybFtNqWGYF8JFtI5oFY/HDhSFq4ah0JgkwRyoXLzpchPUXxzdc90YjTzTTsr8/d/JJAWMUtyxHgakpKW+9sdzpVM2KcEDKP8n7pSFWfKLXSsdaSAcuOY0GI4OXs3oPGT3U/f46HJH83meLm1sbWxgv41pWpsZ3ziidWjOfkfF03GiXqrqj1mWRMYZD1BCthdoOaVgti4r4F6/ADmjNUCVEZPpAQZL1K4z/0BWrIPFY9VVk7sBlZbwPesaTTzyWkiJY7NaTWNMyVZ2Xn5sw1OKpJ/9LJaVtc6tkEhTHaZ6MkcOl2zJhGJ4h5nnlFfPhFOECAVGSuxbdBg8c0VN5uOrmEdguzBtG4pFOp7CgT2sLemEErRZMR9bokumqQ6btOuj+2umqmqJ3PrnvX+Y83gperirs13sky9bIXyvEZEdmNTZChgyaBgtGc3PEHc6gVqhoFjU1Ndu25xstMmzoEO6ahrnJ2KCaeeas4Ibs/Bu8zLUeYh0Zg0FubeDmKbJdLHtFqCZDSDAyNzdzIBblzSs/8KkClcsR0BntcawuyjM31t+Dog0cMABfedr4+PigCHjxl2vo6zdshBOYkQpC4iupCPRE1FQypSErxobychEtqGhFDNE6ig45eNuzZc/tO/LXr/8CHo0MAfg4zpw5faLAEchACfryjDNn2XplcF9ckMlPLrpQ3o7cp6LcXGfISlEl5Ukju3TSuHhwYqfB2CQsOAuecEHM1WnHsLBbd7LTUglDutIGxRk1dLpnQ7fLs7nYSQLLjn375bZ/nDLxatgxquvK0nv1V2RkVi/w8p4I+2DYvuqCi5c+9UwQJbEq4+UOKu0tNy3MyMgQgYBBApoQOaItffoZLikjNzgwSRYDucVJbRdCp4u/PPlfEjaBig2XEpEkQOC+uxfB4YwrDwI1M84Hq0P0ZBBlbg1HRUTTEiLDcVXkHAI50Uyidnz4Dw9JZlbkLH/PYF1IVLQthuiieI37y1M2d0Egjly3wKICmpJLrMANaW+5caFockIEzK+Kc4O1XWIqRNUlDmfC/WR6wCUzPsmDr/WDA+yb2en1wdplRBgZ7NnQWL3oCZmLrlVIbshF5/xx0IAp4NnM9NxkX4Zux7DI3N2sweae/936wmcbu06U5mYeYiBWmSXKxVNPP7vkkUflGiv6K5yusMwtkQS9WaRqbVj3CVdPwTRw5dXXSvK0PoLvB5cfoaDNvehn1vgIkXjm4SmGMaYTefURTdOIlz7OrQWeIvmEKadJMhG5xAUJ3NjYCF7buWs3Nu3AR7Wk5HBra2tQHExLIq0fXm5yXkM7rnr3TVEtJkyZyqUzCCApFE/Rjjfe8u+S6rMqgJpfXfY3UelILldUITx8LUSTK2ZW9CVbFzckv+/uO0VaAuS0xVDkEhfUTJikP1u7bv+BQjTioZKSqir+27DEJS4ow2Uvv/blV18fKDxYUlKCZmpsagqKYP5T1aY8YcQ0I5nmTB3QJwM/wGKwWrTpPdDyvm9hN6FG3JW2UyMW6shMs05JDo//w+dfLW1uaUSe1XWHseinyMio6aBBP5aAG/ojMKmEkfHerUJJGDBQwUC7UIhEIknWnf7yNF8DYhYMUYbWcIwoLiMjpmiJD0nuvesOa1YsBNW/8ZZf27IJImO0z73oErwXc7Nikxb3EQuUvKUaqf773fdAi9iD8Nry17/YuLmw8KCVkRFZRGpgJTkjIy1qeo94Z41ksUvkb448MauBDVUwBJXMOONckUOOTpeLJBhKjDZol+lnnGvLyAwBdHiJuenmG0J11CsrL79k/pXwxH/muRc/+vh/8gu+FTGypLLmRzvyC4Dbzb/6zYt/f+nTz9ZizpYzMtKqkrLZoOyN6+Z00aEzssbL7VFlZG1eYPqqIjziaDAu79yn7QSBe1x17SHLvGKtVyCkX1/+njdxUQ6eyMlCcZ+FUR4UYYliCz1INKolvsOwYKjXRxQZU4WoCMmuCrCDyGTBFQm8I+FlSUHc3IIC71h0D7b2HTly1DayaIoVvaYEZYhoeKvgljJsCH//Bd76Re4WwBCzGjc3USA4UTS3YcYVKcKS+RizEdpFZVYwREK7QyPmSqjZ6xxuKTLns2nzlqnTTv/4k0+5mbsIXPnGW2fPmiNCTJShEinj9GQjPWNkQ1PW+EtnZBw/pJEyU50DBucI6siMkYvKC0QVcxr+z/xXoCwjVVNzXXNrA8ufcb6cowcP6nqHcFqoPD66l6iX45XTESWxgjCkRb0ZEW4SaBkYMCL9aMEVDnwwRH4XYGTRmBT5eGAkO2UTVFCiaQJn0ZwhbyM8RUM8+/zfbKPJI4h405rKvAZofoozK6yREYKtj9xwzIWihQRufBYIDCVTu4gQMeeJ8lR81wlKjrcKEdOJujHLQfLSA40YM6sjvViSG4rbs3fvzbf+prlZPwDIyUeJlHM6D7tAznDZ1FhY/0JB1r4aI3vaWzW11cRlEWdklNXYLHwfdwKCFhcecrv2rWb8W9twhP1AuJyRIYMvKTwmFKvAC67gL09hOMEIaI2vEiLpzViuEVGDyGFZkiRIGLAezB1cCUXmESiVInlcsAkrGtOS6AQM0ZzBldkIxJC77/4H5HHMT0Uv6TiFRzQBB2UOszUsUdYv17IBACUYiuZCeXVgxxBP0vweK2p63dnD5TkeotN8JN1GXq9HH3sctgt5HEdP7/vt4qbmZkdJWGQlUu7f27RbvNOPPsC/OhMzgo4yI6O43QddtigXqW8KXtVr42lpaYCyjDi2jIw42VnaCVJh/2AsiV51oZq5G05MSBEJ4qnYgiF0WBYlCQJEpIdC5xXxlEhN1s0d/F0tKq0gmmBExIE8Nf1C8Fn++srKys5LHARxzMEHi/hH1oGR4W6swstoehCZ9cuFUdI6IpORQiU8Igy5hCjrydLtQnJJ0AdEaySSWouaEnbev/1jmbxE61NRboi5f/+BNR/yD3ix5hMUokTKIwd2ezMK6MjtuikZmrL+g+nLeueNho7MJoAdewJniNjWUyUClOVDZd+wNcaGxmMqjIw4fbPHqWTuNA6UUFESuKmJHqmEg9NFW0Ik2qLIj1ikzgdJIspZUhfR+7gLu41ZGAkZiTCXvKWu+7zLoVgFfIliCCqBs61IBpXMrXFwhJ41ECF4XQhlXpdMivCODypRUqMQm9LslW8udNIEviUHcURNuXXrNhHFcwFkgaLc8BSHMkooW5InHimRclpyNy9XtrLHWJjRcWCtTysqeoxcUV1cXM5fT5fXWfJ0z76PmFKEE4twLr5J9xdpzf6kyJgvRB0LfCryfJLUK+iRiBrwEi3KBEcmch9xlaOgmNCVRHqoZHjPnMHfrrltR0jn6krISPSmz604C8SRzZKn1kdoO9FKHSIDTHbalGTRzJqnJETk1ctVqyX5WB+JKGymZRrAHiZrcoSIjMLcyNxAkXndRTuK+J1brkpgKAirbh4x5ND0x8A6Xnee0sjMnpGXfbj4qvMWG2SnJ2LLg11pO0O68g+EBGJq4fi89Vn4HYSLy7QzVTXxNIN1dYovi3G0QGvWBGERVNrJURyRnijiU0eZf75hA9c7Da/P+HBpi7EJlyih4snduUSvk5KDcSXjaub06aJx7ggEa2RRthKVZ/eevdZ85CEw/opOLmUJoVoy7RIDG3Phhg0bXY9wkQUMNZX7rcurgKdYEBPtZAlKa754wfwoMyMjRBmsEwDLn9tL2SNRU+7avdu2ytYIotwQc/eubicvW9NKQpRIOafTpqxxUAi7qHHz6erNz82YNH9ozvgAnbll5N1Fm7bvtjnmUVJt0aPm5pqq2kMZ6YMhXlNTbbIvCzFljOz3pKcFjjMX5ekuHNeIcBPiJgtuuKNAia49aeJ4Ee/Dm5jb3eEcKidlkYlDpH2jLta3YKOCoiV+Rwg4iix6S4Uhsq2tzVFWiAyGhTujxDHcyBCUylgV7YVXCqfXFEgmtshhCAoWLcEFAQXxQiRlp8gjvqgp6+rqwpgbsqp1lSGTQcl8wa4a0WiU6cj6yl5AZdZ/aCqySY3VlMfuf7IQ3EWNJ4+/fl19U40pjmMduaG55pXVt7sAUSVJ+dECJltLm2Stj1VaU5PT0zlnZqsUJI8j0nHkqRSfuntZgzWW+9IqWcmBPKKnIa7XKdbUUTTzFUQqCetq3Yxk5AxbKniZCya3XGCInY3YUFe0fyfYXLFvSCY2bik/5MC6uvrwVt8dyzMZlEgZUQ1GDqzyYauIvmdEtyz7tRU/UxwuIyPCt/rhQUerip5Y+cvOOI4ZGfksXX5ZpatrR1Rwr6svY7IhcnOL7rBszEaBH12MrCGjUXj0Pus3hMHhhGugsK0DUolWyUSeEshTZLsIcZHHVloXESSqJTc3ffOnyw+qj00TEvsyN18Yl6Dkwvrh7pYDbp6RDuS+XUW6UKf5t7e7b0puWaFkqETKFlYy85SSjsyoDXTMKvBd4Ubcs9fQVG3o1yIeNyvgSAsd+dF/zDkU7vU9M6zHKncxmkXRLZxdJMGMHF1O1o774naC6ASK9kOL1vEglQvbRXTqYi1FtHBkjRmWENgxcOIHVGaRM4ykFBid2ZJgz/YHiYT0yDUCaqTMrBadCqOJox0wMqNXQ1DcfPrA83MOlgVsBWaFVKM5Zv0w2UAQBjvynyLMyCiltq5EK18vuq2jxRBb/8Fh5CiTsujwBEc9wKlKaGQOczOXQUQ2ClE4Vt5dL145qmnsR4bKPH7yqdgMgh0Z6gYNVi9Qcxiv3ggLVtblCqdvA2ER47jORImUy6qKUUmz0qozkWNGBgWbwcLNpw+9MPtv791+tLrYIHouI8P77fn/vn7p8vmRs1oYgtXUFhs1bW9rZZwrYeTa2kOR6AGhOwxJpArF2ihyWOZaMHDWIlcMyRIfN/73PhCzHTYc5w4fjaNwcPIfd+bjgoBpD97NXCuzu5UDbinqgWFZiFYvjhszomOHW2J4A5W8L8oqi/pl5pqVWReMjOSwV1il/2L76/jiDpFRQ6bhfOTcnHHs8Eyca4Fd1Nizhx0iYfdHtophDjFq2ubXDr6TMDIegcTlubl7Wl3N30HudDGKW7rI3w6RbUcy+JS7aA4LhnX3s8isYWtQloghOWWUW9njKxBeFvgCSbAtzPHY/SHC0KgXLBg4cnrexf8StFQgWTmIJoYiMVwch3R8NaVraZVIOXQdmem/EilxgYh2h0hoJ9ZL8nf0iKntSNKhn+ghslowWDQzRwQ+2JXAXSHhBjotX7IzRTSEjCLwfgr/YitTMBIxbwYR7SvBaLQtBRHwLs/1hHVte3GKUs/GB85wNMQXnItN6rgCXGK5AtTcOwegM3JTwcNX5PgY9lrDTmXtLSjlB9KOLvBUMl8wD7YABzm3WhgWCRfy9UgS1JR9VBi5uYWj/ocudqHgkAR05dB7s+jyC0U7r+jog6C91FyDBpARJQ8CTaQsi2aU0DGPzRwwP+HFAmfyQr2V2Ge5p6NZLbysjmF531KES2RMkGwfVcz5+xpNiZT3le4InZGhb2ZFxqU3vG1j+B2rMDLY+1hF2I4PNVdEsv9YRHaKOEhOBFWkS3AEd0kqiOu5+hGspZKqdUNAcJc2N1vFuh/X0aDbwltDdEIblGWrJ4aoQUWzciTwEank+hvABZEo8XjPU4mUy6u0hTh3duROXzdtVTCrd0Q2v4W3DdLSBulVtbdaMNNzRcW34RWA5QYdR6RiSE6ntZUEI0F0wC7SityQrdlyY5qHmch2ocjIKBG3Z1rLRQheFCRn3HCTxEgg8IH1ifu18qlIZqwHcmdExMduzKBUEkKM3Ka+IBmg6Yt6sshdUlT3H0i4IinDv9ixr4VhtdBssrqHWXZmRDa/hbepsvqMNhg5Li6JWTKY/BoL6xXpnGm0P1siY75AISIXBQxgXK7jrta44kxk/XB0cpjo/E/DggEbKFdCybFwQfFhSxE5IajsUeaWDtxqKkq53yiQFEhz1btvcb+OphmRYcdaZXZiiTUcIbgjSn0mMOeAZV4ugAjkrgAjragnayuZ4tMQuWKzQEz5IhlwpaQk4XHxSImUd+zfKGElpjCaeap7SBebD8weFfug9ErBhdaorka+cXHaQqi87qWlmyJUKZGVAMXh7kgXvRm8I7l0UsSz3NqJGNN4L+a+IENjElk5uaXgbmNuOOYVF7wMxETV1/d8hws+Ue0AAA+CSURBVP8olSDhCw/yD1NGNNHRptzqOwoUNSsYWXJ3n6gIsKGIeZEEB/BzE0p6MtrRxdwAbxNuQboMIR1sK8o2muFKpAyB9pfmc/VEdUYGyY0cfGo06+aurKzsMYFK4fiSuEQ5I0fIoMwkx3vfUvG17bgU2ZFJDowsITIXd0BwdV4MMBQEwbgjzemAkQxmlCJhB2vTQx5J9YGzrUOINU+nIRKTFA7t4/oaW4vAhOTIAwf2ItELh7xLWIsGhhI2lDjVSHoyqgM/a25vsQrAQiSnf2BytfW2FGUbO+GqpJx/YJP1zd0RIyNy/+wTUrofzRw7QDBJkpIy0tM0j2z2idfNF5LZqOxwpNRkJgBUD9GIQj8GL4OYbDs0iymhJHRlF1feiazDUPq4ep87bVRy8RXqDgRsqw8kwXe4315kt4FgIhUv7P1TBBoKEu0BMcsgn1pEFmRJ44KXsV1bEUPJ7kFgKHqtse3JaB1JztbqSwxNVk/5sLdgFDJUJeUdBzZqVKVbVA2SkoZwThpKSkwdOfi0KNTKdREDBkw1GBmTUEJiqoSRAURp2WbXZakkhIoh72cgJnRovJVzGQfdHVwMPpLr1EseedSRVYFJzhyWrbWAdwTXdiG5INWaiRECFpP4gaFeqJ1kZmIIyHUxIBwFNZnVCOwvWqYDM0JOSV308y6EV5OIvDJQLsha8hTZyjFE14KhA0Vz+xirl20Xkvdk5IxTliQqMMDBywS6uoSR0U++B2oy8PSm9+kvGRLGo17JmS/cpVswTDZWMUdzGJkp2uu3vfbKB4tUSuyROGfMfDgnZwqKZtLi/j35+8Frr05ujdhCn4EAlqdExlAzSrDzmvcBYllJRQMKZWOVo/df17vIUIsv1n0iukTDQADVN1+Kik0TGOq2NgGV6p9/3rkrl79s7ZClZWWjx062hstDQLu2hhfQqPk4QJxJD+qUcCJKlMMLDFe9+yZ3I0lQF4LTC/btsEBFDAG75Iprc/4qPRmTPapvXGaIs/CxAdW2M2Oqm37Guba6RcG2r3NzOT5gkF90o66kNVOSk8tKDnAjnHLaDBcXILCsVEkZsf+4cM2wAeMNG6sLRgahl1cU/r9/zA3jLdRcRNwFwnZx8YXapUesjgkJqRnpwyRvAwcPfrj2U76PgTsBJKmeXvoE964QSRKVR+rDSZRb8YFd3H13QfFhhMGxO6JMbMPBreAUlYJsszJHwMIjNmXYJgkvKaM4eAjY8qOtVOYIKu0IXs7f+mUkMMQZpOqvGpHoyWBkyKCy9em4IGVV8wV6wAdbng+RkcHjyb70vEkLHHW4qEUec+KVKMuoY2JiuoSR8aioKJzXtsqrCbOg5A1Unlb0FBkqKjiiHBCu+MIoOsZIkrP5EcYbRp3oxV8xk6BoYGTk6S5tiKlQrsh110XOyEpieTcyBG+Gt1zkzDBUZ2QkCXtPRq9A9VUY2QW2PZLEASl/+d0aZr5wpyOzVKm+zEmj5qT4ut3E2iM1DyoUavKI4bMNRsYPny9TXFONu4sOfhRNydGbFS/aUZHqnv/4nWT9RyUHFkfkghqUg2I0SbkYdXg/DReXYUKCjuyITSSyOX0URn4EIJhZFSvC5jaJjd5RRaCeO9KRjczR8XASnqOyRJGZjixZPhUljOVwB6SMM97WbX1dzFNCO3KXvumHk1l8elrOtNhTlqEmJySkGEbzpMQ0ryfe+NM6G+3dszIK1uSgrgNSnnnmrBCJCWNywpSp8lv11LssxrmtPBi9tsY+lRKRCZg0xJkJwxjnyodlQlKRWRQHNBp6XRgtOsJWnw9+hik5lNcOpEUO6pOBFQQsrsIILvIsssbnhmBmHT956vdJR2bVdEDKSPD1zoCybLFjKDEyo7a0lOyJP5qTlcm/eJyLfqQDcd7F8GGzDQpGccnJ2RJGhhNKcXH0bBfm6qMLYjC7u64CdIyRgDHpaBjbgm+rBYtOYLDNmRsBpIxJxYUxB1QCBQ3DWNHkwi09vIGu6wI6Q1O6pkVMyXjtQOlOqRnxGRWGPqljNQ/LDKH0ZMysiq8I4W21SOfmYKGPifLYrZuwW7q75uiAkcHm+JRXFn5X+PmbH98b6eop5n/6jCX9ck7SKqWLlxCfmpExjP3ZvabM4uyvqzv0zpszFTOPXDQsf+FwIriFyT0ToMmCN/GKF14uNuqFFSTc6SmpJqYByVPXj1AuzquET7T8iCLwCMY/JgbXXHzqKSc/tPh+q5zHKo79/JrrrOEuQuBZgXZEXeQbQ8DFqAsu5RK5JDst2sAQ3h2SNUBgiL3dKNedX6OtVChdc2+368n6FqcN6Myue/KLz/+1f06OVZ4Hf79k85YvreHykKSkxLffWMGNc/0NNx8qOcx9ZBvomJRnTr7sugsf07gr4LPsmJGRtqmlobzqwKatyzZufclWxEhHGDf26jFjrjIYGfVKzxgG1wvL20CAkRFz04ZF+/eujLRgjvJHt8YAM6/pw6cKHnLfv5c7LiwgNVynAt8peFCxCJiKoEZhZ7PrAcwtKAqB1qaEfxhqEem6WDGMTrlmSNGHmfeb0ZPhn4ezxREnXPNQFFowxCIckzLKexTKcgZTlt0wMiO7o9UHG5trl39w2+GjETllTRGXrD5jzzpLm2OYjgxGTvRlpvUaJGHk+tpD77zV82qyYgUpGiFACBxfCDizKbO6vb1OZzHwWOcGP+Hqn2kHINKaDAL+3mmDvJ64n85a0iejx4zLaWm5M2b8wczIfm9cr9T+gnrpvO33bN8mPAzl+Gp7kpYQIARiEAE3pLx+24rCsnwBc2nMG+BoMSMjbVxcfO+MQYkJKReetRiX8kUfGvjA5eU9kJCYYujIkLxXLxymHHC66D7TBBi5oqIg1gwX0YeOSiQECIHIIRDvS0lzkXtpxd7pE+d38a9pz4UKI+u8jfU0X4e/Iy4+YUTu9KLSfzY1868KdSGebRLoyDNnLsG/Zkb2JWcl+7L0l4DOeSVQrwAjI3zj57+ur4/ITam2MlMEQoAQ+CEg4JKUj1UX980cOiRnHKOwYK1ZqiPrjBfYOOdLSmtorvUlpp448rxDpdvqG49GAXTYkc8449HklGwzI8cl+NJ7DZEz8r69b+z67oUoSEhFEAKEwA8WAZekDLx2FW06Y8rVCQk+14zMqBm7+5pa6z1e7/hR8/z+jpLy7RFtjLFjrpo6dVFcvHZQsvbR5w8wckbaMOxskejILS01a//nFx3tzREVjzInBAiBHzgC7km5ta25tGLfKWMu7qZdKuvIjJE19L1xsCmDl9s7WgflTB7Yb0L5sZ2RMGVgh8iPp94zDHupdT1d+3RjZM2UzLUjswrCcFFVGZE7Un/gXZCqTwgQAmYE3JMycik9tic1OXP4oJPV7ciGWs1oMcCPjJdb6js62tLTBowefl5ycu+jFbvbwqSWYk1v/LhrTpr8q/QM3UDhnJF3FbxIhgsaOYQAIRAFBNz4KQeJde+1awbDuOxcR2b8yPRQRpTVdWV1jccYZ7a0Nn63d/XWgldD0ZpBx2NOvGLE8Dnmcy00+XVpsbKXqt3Ip/2W6MgVxwo+WjUvCo1BRRAChAAhEAZSxikW91yzGiYIQwk1sa3my6wzXmBljxcnoLqyRw3NNVW1JTAua6l06iwp++eufR8dKvuqWdk9A1w8oP+pI4bNwuZpIx+jaI1/4Y/ca1CSfjinJqBpRsFPc0hLc82aVfMa6sjjggYLIUAIRAOBMJAyxMzNGX/rFSuSkzR3YxP/OmZkRpHtHe3VtYeamuvMjImcq2qLy48W1NeXH63cVVtXUlPbRZSwF2MbXlbWKNxFnZU91nzPXpAKD/mwZw87ROT+yKxoMPKnHy2oqsyPRlNQGYQAIUAIqF8HZYvVj4bk3Xr5itAZmamp+Le5taG24UhLS4OmtzKuN2m1Wkh3g0lniJYBS2KNg5OGUlL7yc+1MGvNn3505ZGyyF6NagssRSAECIEfFAIhLfSZkaqoKcZ3wgnsAEyXOrLByGBVeK0l+3onJvby+9vb2luCtGanjIzzkXv1GpiS0i8uTnOGM+fWOZGwwgOP8MeWjYtKoni3yA+q21FlCQFCQIRA2EgZBRwqL6ioLR7/o/N1ejPbMbpZjRkhCuJ0nafBqDM+PtGXlJmSkhUXl+Dv8MNtTstZWUeGUoxNeulpg31JvTU6NqWV2JEZIx+IsXPgRE1I4YQAIfB9QiA8NmUzIicMybv24md9WPfrTp1mQlRk5CD+1ane09zS0NLa0NbR0t7W2uZv7Whv1QvSsoyLSwJ3e+MS4+OSEhJTDTNFd/7VjRvSlb31a28gq8X3qZdTXQiB4wiB8JMyKj8oZ/wNly7XeFnXTHUODFZvLSHBOrKWqht16vnwQ7RC2CNOnO5JbBmZVvaOo+5LohIC3z8Ewmm+MNCprT+ydee7I4bkpaX201jyOGFk+CN/+vGVtTV7v3/NTDUiBAiB4wWBiJAyKo8dH1u2LUvxZeYOPMms3vI4OiZ0ZOzZ27DuhtaW6J1Ud7x0EZKTECAEoolApEiZ1WFX4WeHjxSMGnZWvH5uUWwyMk4awrkWtIs6mt2OyiIECAERApElZZR6tHLvl9tfTkvJGdBPP+ez2+pfz+vIOI0TZ7/RSUOi/kHhhAAhEGUEIrLQx63D8Ny82TMf6N9JzRo/81ftumzQyEcQJwwre7hD5J9f/b6c9oZwW4sCCQFCoIcQiB4pswpOHjv/jKm3ZWYMFrBtNBgZN5/inj261amHuhwVSwgQAjIEok3KTJZJYy49feptGbgSW1eW8VHm6JB05Lq6Q9u3Eh3LOgQ9IwQIgZ5FoGdImdV59IjZo0acP2HMpVFg5L17VhYXf1h88MOehZtKJwQIAUJAjkBPkjKTzOfLHDXivPGj5+cOmibVmt3oyKWlm/fufb3o4EetLdVyIOgpIUAIEAKxgEDPk7KBAth5yKBpuQOmDR40rW/fwKn5eKrr0Q4Y+VhFQdnhTaVlm0tLNxEXx0InIxkIAUJAHYEYIuUgoUHNOIooO2ts3+xxSUmZUKJxSnJ6etcKYW3tIe1IZRzy2VINIq6o+LalpRpErF55ikkIEAKEQKwhELukHGtIkTyEACFACEQBgbgolEFFEAKEACFACCgiQKSsCBRFIwQIAUIgGggQKUcDZSqDECAECAFFBIiUFYGiaIQAIUAIRAMBIuVooExlEAKEACGgiACRsiJQFI0QIAQIgWggQKQcDZSpDEKAECAEFBEgUlYEiqIRAoQAIRANBIiUo4EylUEIEAKEgCICRMqKQFE0QoAQIASigcD/AV2Mz3VGrUdMAAAAAElFTkSuQmCC;" parent="-F9nOF9U5pAo5h1Y6MdJ-17" vertex="1">
          <mxGeometry x="10.469999999999999" y="10" width="200" height="50" as="geometry" />
        </mxCell>
        <mxCell id="-F9nOF9U5pAo5h1Y6MdJ-18" style="edgeStyle=orthogonalEdgeStyle;rounded=0;orthogonalLoop=1;jettySize=auto;html=1;" parent="1" source="-F9nOF9U5pAo5h1Y6MdJ-13" target="Ou6aJvPcGe9I50dE5qYa-4" edge="1">
          <mxGeometry relative="1" as="geometry" />
        </mxCell>
        <mxCell id="-F9nOF9U5pAo5h1Y6MdJ-22" value="Devices for viewing media" style="text;html=1;align=center;verticalAlign=middle;resizable=0;points=[];autosize=1;strokeColor=none;fillColor=none;" parent="1" vertex="1">
          <mxGeometry x="146" y="1515" width="160" height="30" as="geometry" />
        </mxCell>
        <mxCell id="CXB5AnLlw0m5eUocCLeH-5" style="edgeStyle=orthogonalEdgeStyle;rounded=0;orthogonalLoop=1;jettySize=auto;html=1;entryX=0;entryY=0.5;entryDx=0;entryDy=0;" parent="1" source="CXB5AnLlw0m5eUocCLeH-4" target="Ou6aJvPcGe9I50dE5qYa-16" edge="1">
          <mxGeometry relative="1" as="geometry" />
        </mxCell>
        <mxCell id="CXB5AnLlw0m5eUocCLeH-4" value="Syncs TRaSH Guides &#xa;Profiles" style="shape=image;verticalLabelPosition=bottom;labelBackgroundColor=default;verticalAlign=top;aspect=fixed;imageAspect=0;image=data:image/png,iVBORw0KGgoAAAANSUhEUgAAAMgAAADICAYAAACtWK6eAAAQ2UlEQVR4nOydYWhVV7bHV5+CgVde8mgu5nEDBp7QGF6u+SBGeHk1H/qo4floJEItycM8RqhFQx0QaqEzVabDKFNoSoSxTKEGEpqBBi3jkBQKtdBSb/CDxk6SQgsKCaQTSyPjDOlMC8Oh6wyHM+fue865e539PzfrB1Kr13NWkvM/a+291l7rn0hRlIqoQBTFgApEUQyoQBTFgApEUQyoQBTFgApEUQxsdW1Antg7uGsnER3uHurYT0Ttru1JyM3yxMInK/NrUyt37q+6NiYvPOLagLwwMjPQT0TvEFGDa1tqxBNH31jf9C3XhuQBDbFicOjCEz8joit1IA6PFiL69NCFJ55zbUgeUA9SBfYcV1zbIcAGEf3bWN/0umtDkFEPYqDY2ey9bd92bYcQnjf8sNjZXA9eUQwViIFiqXCEiJpc2yFIV7FUOODaCGRUIAa6hzqOurZBms3wNdaCrkEqUMdrjzC6FjGgHiSCYmezF1a97tqOjPDWIFPFzmbNiUWgAomgWCp43qPNtR0Z8lSxVOhxbQQiKpAIuoc6nnFtQ9YUS4UB1zYgkskaZO/grqbuoY5TRHR0k72ZFfvcJqLR8sTC1Nzk4ob0zbZIXrzY2dw8PN7309ZS4ddEdLDOt0yVbGghov7WH7bg/0pES3/8w5//InUzUQ8yMjNwxftiJO+hbHreGOubPiV1cZE1SLGzuWFkZuCyikPJgBMjMwNnpC4uI5AfsrOagFKyYCsR/WLv4K4uiYuLCKR7qGNQ4rqKUoliqSDyzElt8+qeupIpraXCHonrSgmkRei6ilIJkfSBdYGMzAxonkOpG6wLZKxv+q7tayqKK7TURFEMqEAUxYAKRFEMqEAUxYAKRFEMqEAUxYAKRFEMqEAUxYAKRFEMqEAUxYCUQG4IXVdRKiHyzEmdSf+azwwrSiaUJxb+T2LuidiZ9L2Du3q7hzp+RER76mRsgILHuuc5yhMLb8xNLi65NkZRNh26SFcUAyoQRTGgAlEUAyoQRTGgAlEUAyoQRTGgAlEUAyoQRTGgAlEUAyoQRTEAM7jx0IUnDraWCieIqN21LYozviOiz8oTCxfmJhchKsIhxkCPzAx0EdGnWtSoMKtEtAthNLXzEIvnOnyo4lACtBDRzN7BXc5H9jkXSPdQx1mdXahEsK97qGPYtRHOBaLiUAw4fzYQBKIosCAIRHzWtZJbdJGuDR4UA7dcG4AgEEWBBUEgzt2oAovzaWUIAnHuRhVMEMb5IQhEUWBxLpDyxIL2M1KiuO3aAEIQyNzkovVueEpdALE2dS4QRUEGRSDOF2MKHBChN4pA7rk2QIEDIvRGEYiihIEoQUIRyHXXBihwQJQgwRy5zTne226Wf90KhAfe97eViHqI6DARdfGff0xEH9R4z7bQ/6/yQaN2ItpX47UVRgVih2Ei+k2Fv/uSiD4iop8T0XNEdIlnprxFRONC9uwnoikWTF7Rbd4AeQ2xPM9xxCCOMG+yF7lJRJeJ6AUhuzxBPomy0E3DWN80RAkSikDyylQCcfjcJqKDHIqNEtFRIdt+T0QHhK69aUARSB7fdJ73eC3lv33A64R32ZMMWLbN5zaHdHkDIrwiFIGM9U1DJIUScpzf0mn5loiG2JNcJKJGi7YFOS90XUlUIDnnmqUFtieSXiL6grc1ixauGeYei/k7gWvXPUgCyVOYlTa0iuIBbwG3E9GrFq8b5E3eWs4LMKVHSAKByJzG4DzvEtnkK97d6hFctI/G+Mx6zl5U4iAJJA94YdBLQtde56Sit2h/WuD671XZTp8lon/N0YsqE5AEsuzagBhILXiL/PD67Vc9kfy7wH2ORHgIL/Tq5zDv7YgMvQs0xIoAfRF5ld/CEhwLPZhNRHRS4D5fBbZ9N7gC4L/469rD/68EQBLIQ9cGGFgSfHh2VBDDMP+dbS6zSLpCO3FnBO6ViuX5Nd3mjeC+awMMnOfdJtts49CqOeLvmthr2eYeET1PRJ8H/mw/UtZ9RQWSK65zxluCcGgVpktowR5kh5AQ6wIkgcC8NQKs8wL2T0LXPx3jM9LrguMIXdRDfOXaAB8YgZQnFhAFIhVabSGid2LuGHmhz24BG4i9xzGha9cCzFYzjEAAWY+ZXEvDk7zlGocGXlhLcLXC+kdhkAQC41ZZHPu4VkqCOKFVEG8t8p+WbRgMnHBEAyYnhiQQGLfK26CfC137KHuQpBy2bEdSkWYJTE5MBRLNlNB1H6/hfEa/RTteBPYehJQTQxIIUpHcZaHzGadqmObbZqmQcXcOzojA5MSQBIJEFwt2zGI2e3eChXkU1yx1G0QOreBAEghSiEX8pj/JhXPP1XgtP2OeJt+wyoeq/peIyjXasYNPMaIDs+WPJBCkECvMRSL6kIj+J+W/T5OM84R5lr2ZjfMnj1Upd3/IoaXz8GtuchFGINoXKx5b+S3eyw9Zf8IE4qmE97vKGXSbSUpTWcs6JyTL7O0Qs+tOgBHIyvwazMKsCr3caMGvijXlb7aw94l7xsJPTt4N7FoFz0asBkLRjQS5o8YKGXP/fqMBMfrn5K86OhsCMTjHB0cgd+7DbO3FoI3Dn2F+kCv9UHv4bRyXJr5uGpZCYWownPIe+J2hz99grxHlpW7z1+aioR9MeEVIAmE2atgGDfMFv70fDX2dLaF7NEWEE62hf9PM1wnTxt5kgu8VXkRnuWPUzr98eit8bok9xkSVIsyPOB9Uy85bGlQgBsp8NsEGO/lt3C/QZOGbkKiG+Nf5wJn1/dxBEYmka5tLDgQC0XLUB2kXS4ImfgvaEp1PpdDjDJ/rbhQsMEyL5zUOJVz4f4R0PtwFaAKRyIW08AP9jsWycdPDP8zhHULzA+IxC701hHu9GYc9UPkwNIFIDk05wu77RQvXmq3y0CCUkG/w9vJ/syf4PuV17mXsDSEG5/igCSQLXuaiwVr4lgUHU3UaYIMf6H1E9Iala15Ee7NnxWYUyLuWStnfB23n2U9E/285n/Blwu3qWoDaxUITiPS++4blUgqpsvi0rAruAo1nkRdBGZzjgyYQaY5bPgiFJpAW4Te91BFkWKAEUp5YkNxSnBWYCfgAsBvhSaGGc8Ql97NC1yakcyA+UAKZm1yUFIhUleo4WHKrmUOhbQLX/p6I+gTXCXDlRlACEeSS8IIarfFam3A7H6lQC25XEFEgtr3IXW61mTYPEAe0rDnxdrYUUgKB6WbigygQ29icBlWJezVU4UrhLdivCIVaD7gSGO6Nb5t6F8g6D+zPgnNoe/icE7HZDSXI+7xor2sQBWLTzZ4RbP4WBWKodVrIi5BAU2+4wkhEgdh0229avFaQRj6jHt5ORRTIHsEdPMRKAqsgCgRuqy+CS1zl6j0gr3BDBOLyDrQdLeKiRdsl/2S70QbS4BwfRIHYTBZJNH97PXCIqJUX5zcD3mQYtLBPYoKU1cYOSINzfBAFYhPbZRdHK3QoaeOjrGOBQ1poPCkwYrrV8vXgQBSITbftxd7bLV2rsUosH2w0h+hBtvIayWYZSo/FaxFvl0MBJ5DyxILth8uGF/GbrrVkeM+4fJbw8zZDLaktZBjgBCKAjWLC08Dd0JNmzG1Nz33a0DmlbkAUiO1BOm28sE5Ld8YeIQlTKZJ1DVyRW8sGxn6hdZaWmsRAIn4/lbJhQyM/TIhtOL212rMpa8zaa/Csu/l7Yqt/WRC40pXNIhBKWd16ClQcZKFg8GRCL+J99pfcVEFCHISYA0MUiFSX92MpHoikTaezYj00qSpNicbOBCJ7he95WlAcpAem3NLAcfOWGJ/dwp9F9B4bEd3l09YwDUcMB93OC/AXuBr4GxbGVcRaKWnQWo+ScEXsAU6YvV/lcwf5s4hctdxK1fOsn/CQoOOh3boNflGc4d9Lz3CBmxGz2QRC/BBUE8gRXoiu8i7Y1kDWOKrZdZZEhUWrvMBN8/M8EuieeJfzPUv8+5tE9DV71GvC4RXNTS7CJVgRBSJNP+cBKmVtG/kzLTH62D4eSB42hd6+4RyBjZzBaIUxbM/yL+Jt6YYIe4KsB87Rx/FGPcAeVRQ4gazMr2XhZme582CUAEa5SjdOk+fPQ22E3gv8/lyVf9vID3HcuP6zmFnwcgV7akHyfLsP1OAcH7hF+sqd+1m42fYKZRI7eOH6QQY2PEhYe3Qx48NfPlkN/oSr5CVEgTBZiCTqreiLRrL3UxpuOaoQ3pbh+RYVSAJqHXcch56I8u8DHPIgufuobd2sOJBhDRpSb7G/gyqQrAh3IunK+ERgnFL8Gw7LwDflwjwIqkCy2u5rI6Jn+PdP8Y5UlufK42ybZtG2KIodGY9f0xArAVkOUTke+O86WHh1nYh+5+jelzPO92iIBUpP4GzDF66NCbDs8EDSK5vhrEcc4PIgTJbudmtg3ZH0dF6tmE4ovuVoYb7bUZdIyDovVA8C6W4FMK1BXM05dDLOYaxvWgWiJOKY4JwPE2jzTpwCKRDhQTomkMrb/aOxj2V0vy08KtvF9wDuHIgPpECEB+mYaM/4ftUexvaM6qCINyuy3NYNAneS0AdSIA5p52rYrIjztj5psbeXCZehFdxZdB9kgbjyImhdEVszqA1rdOg9CLGbiQ+yQFzRRkQnXBsRokugbajPNn4piB6GyisqkGheS9kmKClJFsQSzaeJQyvXNVdwJwl9kAXicl+8gctdTggOn6GEAvHWR7+K2XQiDts5Y+6q1isI3Fl0H2SBuKaBDyl5P7wXuZtglgv4KI5z04k0bOOv4RkiepvPnZ8lokct21hXoJaaENDWX1OFru7rgZIY39vdZ7sfBvb270Z8fpl3buI2ww7yckTTid2hZg5tIfuR8jv/AOLgHB9kgcAmj5jgg9eW4X17ODQ6F7Ilt8WFiINzfDTEyidnAMK9TQGyQGAXbgA0hNqi2mwk5wK4wTk+sAIRGKRTbxzmcyyKILACUarin2NxUfG7aUAWyIprA3LCaf4vyq5fGiDPghC4QGAL2MDwz42g7/rlEmSB5PmNmCUN3NwBOtdRBdifteZB6oMs8zASwP6skT2IojgHWSCw2VXFOrA5LxWI4hzEwTk+yAJRFOfACiSjQTqKe7Lo5J8aXIFkM0hHcQ/0zxlWIIyuQ+of6EgBXSBIndYVGZZcG2ACXSCK4hR0gUDHp4oVoMNodIFkOUhHcQN0J390gSiKU9AFAu1+FSvAngWhHAgE2v0qtYM6OMcHXSDQ3zylZqBzIIQuEH67aJhVv8B2dfeBFgijYVb9kvXQ1MTAC2R5fu1j1zYoMpQnFj5xbUM14AWyMr/mapC+Is811wZUIw8CuRnRrFnJP+fmJhd1kV4rK3fuf8fjwXSxXj8sjfVNn3VtRBzgBUI/7GatL8+vveraDsUOy/NrP3FtQ1wecW1AEkZmBq7zEBglv/x4rG961LURcbE1zisrplpLhXYi6nBtiJKc5fm10fHh2XOu7UhCrgTC65HftpYKnQ6G/iu1cW58ePYl10YkJVcCIRbJ3OTiVLFUePgv2/95r44vhufu8vza8+PDsxddG5KGXK1BwozMDDTxjO+nXNuiRDI+1jc97NqIWsi1QDyKnc1bi6VCT7FUeLq1VOglov8A7zlcz2wQ0a3l+bUPVubXpucmF3NfJpR7gYTZO7irqXuowxNKFzd1zntjZ3RucY7qenli4QZyl0RFUSyTi0ShorhCBaIoBlQgimJABaIoBlQgimJABaIoBlQgimJABaIoBlQgimJABaIoBlQgimLgbwEAAP//0e5miDoM7wQAAAAASUVORK5CYII=;" parent="1" vertex="1">
          <mxGeometry x="-111" y="315" width="90" height="90" as="geometry" />
        </mxCell>
        <mxCell id="CXB5AnLlw0m5eUocCLeH-7" value="&lt;font face=&quot;arial&quot; style=&quot;font-size: 18px;&quot;&gt;&lt;b&gt;Recyclarr&lt;/b&gt;&lt;/font&gt;" style="text;html=1;align=center;verticalAlign=middle;resizable=0;points=[];autosize=1;strokeColor=none;fillColor=none;" parent="1" vertex="1">
          <mxGeometry x="-121" y="284" width="110" height="40" as="geometry" />
        </mxCell>
        <mxCell id="eRxM0dfgn17U2gTf4rzu-1" value="VPN to protect our identity" style="shape=image;verticalLabelPosition=bottom;labelBackgroundColor=default;verticalAlign=top;aspect=fixed;imageAspect=0;image=https://jakivpn.pl/wp-content/uploads/2016/02/airVPN-logo_800x320.png;clipPath=inset(0% 27.67% 2.5% 28.33%);" vertex="1" parent="1">
          <mxGeometry x="-70.78" y="492" width="130.78" height="115.92" as="geometry" />
        </mxCell>
      </root>
    </mxGraphModel>
  </diagram>
</mxfile>
